<svg width="147" height="176" xmlns="http://www.w3.org/2000/svg" xmlns:xlink="http://www.w3.org/1999/xlink"><defs><path id="a" d="M.74.442h20.348v6.53H.74z"/><path id="c" d="M0 .762h17.844v9.298H0z"/><path id="e" d="M.261.357H77.14v34.357H.261z"/><path d="M9.867 1.209l2.771 2.321c.138.115 13.594 11.211 28.449 8.49.3-.056.621-.072.954-.041 1.47.14 3.127 1.1 4.594 2.66l.001.002c.344.366.675.77.987 1.19 14.272 19.351 27.874 24.033 28.445 24.224l2.755.888c.492.159.965.605 1.303 1.15L57.723 54.77 10.519 34.945a212.389 212.389 0 01-1.32-10.611l-4.022-8.775L.852 5.732a.178.178 0 01.07-.223L8.376.96c.337-.3.906-.243 1.491.248z" id="g"/><path d="M2.273 1.175l2.77 2.321c.138.113 13.592 11.211 28.448 8.49.301-.057.622-.072.955-.041 1.47.14 3.127 1.1 4.593 2.66h.002c.344.368.675.772.986 1.191C54.3 35.148 67.901 39.83 68.472 40.021l2.755.886c.935.302 1.814 1.64 1.798 2.729l-.052 3.22c-1.108 70.185-33.413 68.056-34.788 67.931l-.025-.001c-.902-.082-1.923-.668-2.823-1.625l-.027-.029C33.935 111.673 1.625 76.588.517 5.127L.465 1.825c-.017-1.116.87-1.436 1.808-.65zm5.85 14.737c2.163 48.26 19.08 76.434 26.56 86.647 1.232 1.682 3.495 3.855 4.721 3.579 7.431-1.677 23.787-11.752 25.96-57.25.042-.88-.594-1.995-1.378-2.43-6.047-3.356-15.867-10.235-26.1-23.335-.721-.923-1.622-1.448-2.347-1.366-10.402 1.184-20.085-3.14-26.059-6.693-.775-.462-1.398-.068-1.356.848z" id="j"/><path d="M2.32.779C8.294 4.33 17.976 8.655 28.38 7.47c.726-.082 1.626.443 2.346 1.367 10.234 13.1 20.053 19.978 26.1 23.333.786.436 1.42 1.552 1.378 2.43-2.173 45.499-18.53 55.574-25.96 57.25-1.227.278-3.49-1.896-4.72-3.578C20.041 78.061 3.125 49.886.963 1.63" id="m"/><path d="M2.284.779A57.559 57.559 0 005.93 2.77c2.29 42.296 15.906 68.822 23.982 81.042l.53.794a87.647 87.647 0 001.933 2.752c.863 1.177 2.224 2.577 3.39 3.227-1.317.63-2.525 1.032-3.556 1.266-1.226.277-3.49-1.897-4.72-3.579C20.004 78.061 3.09 49.886.927 1.627" id="p"/><path id="s" d="M.796 1.625l.028 1.207.932.691 1.198-.003.63-.97-.318-1.177L1.764.192"/><path id="u" d="M.796 1.625l.028 1.207.932.691 1.198-.003.63-.97-.318-1.177L1.764.192"/><path id="w" d="M.796 1.625l.028 1.207.932.691 1.198-.003.63-.97-.318-1.177L1.764.192"/><path id="y" d="M.585.785l-.152.938.555 1.357.934.812.69-.047-.075-1.187L1.653.595"/><path id="A" d="M.585.785l-.152.938.555 1.357.934.812.69-.047-.075-1.187L1.653.595"/><path id="C" d="M.585.785l-.152.938.555 1.357.934.812.69-.047-.075-1.187L1.653.595"/><linearGradient x1="-60.892%" y1="-29.067%" x2="75.618%" y2="73.911%" id="h"><stop stop-color="#FFF" offset="0%"/><stop stop-color="#FFF" offset="100%"/></linearGradient><linearGradient x1="21.634%" y1="-75.674%" x2="50.985%" y2="40.758%" id="k"><stop stop-color="#FFF" offset="0%"/><stop stop-color="#FFF" offset="100%"/></linearGradient><linearGradient x1="-25.868%" y1="-215.87%" x2="52.15%" y2="45.277%" id="n"><stop stop-color="#FFF" offset="0%"/><stop stop-color="#FFF" offset="100%"/></linearGradient><linearGradient x1="73.536%" y1="204.799%" x2="51.885%" y2="69.458%" id="q"><stop stop-color="#FFF" offset="0%"/><stop stop-color="#FFF" offset="100%"/></linearGradient></defs><g fill="none" fill-rule="evenodd"><path fill="#FFF" d="M5.91 140.64L43.03 164l95.878-42.64L101.787 98z"/><path d="M6.378 141.312l36.567 22.88 95.428-42.203-36.565-22.88-95.43 42.203zm36.538 23.563a.32.32 0 01-.172-.05L5.52 141.534a.32.32 0 01.042-.565l96.14-42.516a.314.314 0 01.303.024l37.223 23.29c.102.063.16.174.152.295a.324.324 0 01-.193.27l-96.14 42.516a.323.323 0 01-.13.027z" fill="#FFF"/><path d="M97.644 94.668c-3.478 7.11-8.855 9.657-8.855 9.657l-72.817 32.367a21.877 21.877 0 01-9.794 1.868l-.485-.02 2.23 2.424a40.409 40.409 0 008.292 6.882l10.653 6.666c9.907 6.198 21.68 4.832 30.117 3.648l69.028-30.542s5.6-2.675 9.067-10.14l-37.436-22.81z" fill="#8EBA68"/><path d="M13.928 137.499c.002-.008 0-.013 0-.018a21.875 21.875 0 01-7.75 1.096l-.486-.018 2.232 2.422a40.246 40.246 0 007 6.012c-.231-.603-1.765-4.86-.996-9.494M126.54 127.42c1.282-.722 5.757-3.6 8.702-9.94L97.805 94.667c-3.477 7.113-8.856 9.657-8.856 9.657l-.18.08 37.771 23.017z" fill="#75AB47"/><path d="M6.455 138.892l1.706 1.854a40.172 40.172 0 008.225 6.83l10.654 6.666c9.374 5.864 20.323 4.94 29.855 3.605l68.986-30.525c.047-.02 5.403-2.653 8.786-9.72L97.778 95.125c-3.489 6.891-8.632 9.388-8.852 9.493l-72.822 32.37a22.123 22.123 0 01-9.65 1.905m38.578 20.596c-6.233 0-12.561-1.089-18.334-4.705l-10.655-6.664a40.845 40.845 0 01-8.357-6.936l-2.232-2.423a.325.325 0 01-.053-.354c.053-.118.196-.177.306-.187l.487.021c3.283.147 6.634-.502 9.648-1.84l72.815-32.367c.045-.021 5.315-2.591 8.699-9.507a.321.321 0 01.2-.166.344.344 0 01.258.034l37.435 22.809c.14.085.193.264.125.41-3.478 7.483-8.99 10.183-9.224 10.295l-69.035 30.545a.289.289 0 01-.084.026c-3.834.538-7.896 1.01-11.999 1.01" fill="#FFF"/><path d="M88.77 104.325s.491-.236 1.266-.752l-7.491-2.444-17.323 13.664 23.547-10.468z" fill="#B4D19B"/><path d="M82.61 101.488l-15.178 11.97 21.2-9.424c.033-.016.272-.134.655-.364l-6.677-2.182zm-17.389 13.627a.32.32 0 01-.276-.156.318.318 0 01.076-.418l17.326-13.666a.33.33 0 01.3-.053l7.49 2.446c.119.04.201.141.22.263a.312.312 0 01-.142.31c-.784.522-1.286.765-1.305.774l-.01.005-23.55 10.466a.295.295 0 01-.129.029z" fill="#FFF"/><path fill="#70A840" d="M5.693 141.262l-.253 10.125 37.224 23.293.252-10.125z"/><path d="M5.768 151.212l36.588 22.893.233-9.377L6 141.836l-.233 9.376zM42.664 175a.31.31 0 01-.17-.05L5.27 151.659a.32.32 0 01-.152-.279l.25-10.125a.314.314 0 01.172-.273.311.311 0 01.325.009l37.225 23.291c.093.06.154.166.15.28l-.252 10.125a.318.318 0 01-.17.274.309.309 0 01-.154.039z" fill="#FFF"/><path fill="#609E2A" d="M139.057 122.04l-.253 10.122-96.14 42.518.252-10.125z"/><path d="M43.235 164.766L43 174.178l95.487-42.227.235-9.412-95.487 42.227zm-.57 10.233a.303.303 0 01-.179-.055.318.318 0 01-.143-.273l.253-10.125a.325.325 0 01.191-.286l96.139-42.516a.331.331 0 01.311.027c.091.06.145.166.143.275l-.252 10.125a.325.325 0 01-.192.286l-96.14 42.516a.336.336 0 01-.13.026z" fill="#FFF"/><path d="M55.015 162.106l-12.187 5.965-11.18-6.397s6.21 5.13 11.107 9.368c0 0 9.317-6.582 12.26-8.936" fill="#4C9210"/><path d="M34.688 163.784a681.43 681.43 0 018.087 6.848c1.06-.752 5.98-4.238 9.429-6.791l-9.233 4.52a.324.324 0 01-.303-.011l-7.98-4.566zm8.068 7.578a.32.32 0 01-.212-.078c-4.838-4.186-11.037-9.313-11.1-9.363a.321.321 0 01-.06-.432.325.325 0 01.425-.096l11.03 6.312 12.034-5.89a.33.33 0 01.415.119.32.32 0 01-.07.423c-2.916 2.334-12.183 8.88-12.278 8.946a.332.332 0 01-.184.06z" fill="#FFF"/><path d="M125.491 131.651s14.8-3.328 19.7-4.684l-6.227-1.203-13.473 5.887z" fill="#8EBA68"/><g transform="translate(124.428 125)"><mask id="b" fill="#fff"><use xlink:href="#a"/></mask><path d="M14.575 1.099L4.309 5.585c4.126-.945 11.106-2.556 15.015-3.568l-4.749-.918zM1.063 6.972a.326.326 0 01-.306-.221.324.324 0 01.177-.397L14.407.47a.32.32 0 01.191-.02l6.226 1.202a.324.324 0 01.263.303.322.322 0 01-.236.322C15.998 3.619 1.281 6.933 1.135 6.965c-.024.004-.047.007-.072.007z" fill="#FFF" mask="url(#b)"/></g><path d="M1.231 148.365s10.095 2.466 17.198 6.017l-12.846-8.655-4.352 2.638z" fill="#B4D19B"/><g transform="translate(.91 144.643)"><mask id="d" fill="#fff"><use xlink:href="#c"/></mask><path d="M1.144 3.598c2.014.528 7.765 2.109 13.04 4.28l-9.519-6.41-3.521 2.13zm16.378 6.462a.355.355 0 01-.145-.032C10.385 6.532.345 4.058.245 4.034a.321.321 0 01-.091-.588L4.508.81a.319.319 0 01.345.008l12.85 8.656c.14.096.182.282.098.428a.325.325 0 01-.28.16z" fill="#FFF" mask="url(#d)"/></g><path d="M31.65 161.995a.315.315 0 01-.156-.04l-6.054-3.353a.321.321 0 11.311-.563l6.054 3.354a.32.32 0 01-.156.602M23.664 157.569a.32.32 0 01-.156-.04l-1.15-.637a.322.322 0 11.314-.56l1.147.635a.318.318 0 01.126.435.317.317 0 01-.281.167M19.757 155.418a.338.338 0 01-.154-.037l-1.325-.716a.317.317 0 01-.129-.434.319.319 0 01.435-.13l1.325.714a.319.319 0 01.13.434.322.322 0 01-.282.17M119.88 134.398a.323.323 0 01-.128-.618l5.61-2.425a.327.327 0 01.425.168.321.321 0 01-.168.423l-5.612 2.425a.325.325 0 01-.128.027M88.641 147.897a.321.321 0 01-.127-.618l29.212-12.623a.326.326 0 01.424.17c.07.16-.006.35-.168.421L88.769 147.87a.325.325 0 01-.128.027M85.246 149.364a.322.322 0 01-.127-.618l1.031-.445a.324.324 0 01.423.17.32.32 0 01-.168.421l-1.031.445a.352.352 0 01-.128.027M55.015 162.429a.323.323 0 01-.127-.618l14.078-6.084a.325.325 0 01.422.17.32.32 0 01-.166.421l-14.08 6.082a.314.314 0 01-.127.029" fill="#FFF"/><path d="M123.496 114.506l-19.272-11.745c-4.325 5.36-9.48 1.805-9.48 1.805-1.014 1.065-2.168 2.03-3.396 2.599-3.224 1.485-52.43 23.043-70.836 31.105 2.66 1.857 2.52 4.596-.495 6.332-.192.113-.41.195-.615.291l19.081 11.94a12.123 12.123 0 0011.307.823l71.845-31.541s1.808-.886 3.856-3.06c-.006-.003-5.987-2.767-1.995-8.55" fill="#B4D19B"/><path d="M122.916 125.31a17.331 17.331 0 002.574-2.255c-.003-.003-5.986-2.768-1.992-8.55l-19.273-11.744c-4.325 5.36-9.482 1.805-9.482 1.805-.75.788-1.58 1.522-2.458 2.08l30.631 18.665z" fill="#A0C580"/><path d="M20.103 144.938l18.58 11.625a11.801 11.801 0 0011.005.8l71.845-31.541c.004-.004 1.602-.802 3.46-2.686-.773-.452-2.465-1.64-3-3.605-.413-1.525-.05-3.18 1.078-4.924l-18.748-11.426c-3.896 4.593-8.43 2.409-9.502 1.794-1.124 1.152-2.238 1.984-3.31 2.48-3.154 1.454-49.832 21.906-70.341 30.89 1.068.891 1.627 1.968 1.579 3.079-.06 1.32-.962 2.548-2.542 3.458a6.288 6.288 0 00-.104.056m24.838 14.064c-2.302 0-4.592-.637-6.6-1.898l-19.085-11.938a.318.318 0 01-.15-.29.317.317 0 01.184-.272l.227-.102c.126-.057.253-.112.367-.178 1.384-.795 2.172-1.834 2.22-2.927.045-1.03-.576-2.047-1.747-2.864a.327.327 0 01-.14-.295.323.323 0 01.194-.263c20.239-8.864 67.654-29.637 70.828-31.103 1.058-.488 2.166-1.336 3.295-2.527.061-.066.18-.095.235-.102.086 0 .168.034.229.095.156.102 4.926 3.277 9-1.777a.323.323 0 01.423-.073l19.27 11.743a.322.322 0 01.1.457c-1.166 1.686-1.56 3.257-1.175 4.675.607 2.24 2.941 3.355 3.041 3.4.094.043.16.13.178.232a.316.316 0 01-.08.28c-2.069 2.19-3.875 3.091-3.95 3.129l-71.857 31.545a12.404 12.404 0 01-5.007 1.053" fill="#FFF"/><path d="M43.72 151.976c-6.754 6.07-11.92 5.525-13.397 4.698 0 0 4.722 2.956 12.665 2.78 9.187-.2 12.54.031 17.332-2.598-9.333 5.118-16.6-4.88-16.6-4.88" fill="#609E2A"/><path d="M32.838 157.487c2.125.803 5.583 1.748 10.145 1.648.941-.021 1.826-.037 2.65-.052 3.798-.07 6.431-.118 8.683-.475-5.573-.335-9.668-4.968-10.639-6.164-4.545 3.996-8.36 5.032-10.839 5.043m9.473 2.3c-7.534 0-11.97-2.722-12.16-2.84a.322.322 0 01.33-.553c1.344.754 6.306 1.379 13.023-4.657a.37.37 0 01.248-.082.34.34 0 01.23.134c.29.398 7.208 9.698 16.182 4.789a.316.316 0 01.437.127.32.32 0 01-.127.435c0 .002-.002.004-.004.004-.003 0-.005.002-.007.004-4.364 2.387-7.642 2.448-14.817 2.578-.827.014-1.707.03-2.65.052-.23.005-.46.009-.685.009" fill="#FFF"/><path d="M46.453 140.37l3.52 2.286a11.386 11.386 0 0010.722.908l36.852-15.915c1.972-.852 2.2-3.548.4-4.72l-3.52-2.287a11.396 11.396 0 00-10.723-.905l-36.85 15.914c-1.973.852-2.202 3.55-.401 4.72" fill="#8EBA68"/><path d="M46.628 140.1l3.52 2.286a11.034 11.034 0 0010.42.88l36.85-15.912a2.335 2.335 0 001.422-1.972 2.331 2.331 0 00-1.07-2.182l-3.52-2.285a11.04 11.04 0 00-10.42-.88l-36.85 15.912a2.327 2.327 0 00-1.42 1.971 2.334 2.334 0 001.068 2.182m9.548 4.722c-2.232 0-4.446-.641-6.38-1.895l-3.52-2.287a2.958 2.958 0 01-1.358-2.775 2.971 2.971 0 011.808-2.51l36.85-15.912a11.69 11.69 0 0111.027.93l3.521 2.288a2.966 2.966 0 011.359 2.773 2.968 2.968 0 01-1.808 2.511l-36.852 15.912a11.679 11.679 0 01-4.647.965" fill="#FFF"/><path d="M82.512 126.87c6.115 4.19 6.577 9.726 1.033 12.366-5.545 2.639-14.996 1.384-21.11-2.806-6.116-4.189-6.578-9.726-1.032-12.364 5.544-2.641 14.996-1.386 21.11 2.804" fill="#B4D19B"/><path d="M68.443 123.004c-2.572 0-4.978.435-6.9 1.351-2.258 1.074-3.53 2.638-3.678 4.524-.191 2.428 1.542 5.085 4.753 7.287 6.018 4.127 15.343 5.37 20.787 2.78 2.257-1.076 3.528-2.639 3.677-4.523.193-2.43-1.54-5.085-4.751-7.29-3.895-2.667-9.173-4.13-13.888-4.13m8.075 17.927c-4.854 0-10.271-1.498-14.265-4.234-3.405-2.335-5.24-5.203-5.03-7.867.164-2.097 1.6-3.892 4.04-5.054 5.632-2.682 15.241-1.409 21.433 2.83 3.405 2.334 5.24 5.204 5.029 7.868-.163 2.097-1.6 3.891-4.043 5.054-1.996.95-4.495 1.403-7.164 1.403" fill="#FFF"/><path d="M80.187 127.977c4.7 3.22 5.054 7.475.793 9.502-4.26 2.028-11.523 1.064-16.22-2.155-4.7-3.218-5.054-7.474-.795-9.502 4.262-2.029 11.525-1.065 16.222 2.155" fill="#8EBA68"/><path d="M69.378 125.079c-1.967 0-3.805.334-5.273 1.032-1.706.814-2.67 1.995-2.782 3.414-.145 1.841 1.172 3.857 3.618 5.534 4.608 3.155 11.74 4.114 15.9 2.13 1.71-.814 2.672-1.994 2.785-3.414.145-1.84-1.174-3.857-3.62-5.534-2.982-2.04-7.02-3.162-10.628-3.162m6.205 13.777c-3.747 0-7.927-1.158-11.007-3.267-2.637-1.81-4.059-4.037-3.896-6.114.13-1.637 1.246-3.037 3.147-3.944 4.343-2.068 11.767-1.09 16.545 2.182 2.638 1.809 4.06 4.035 3.895 6.112-.129 1.638-1.248 3.04-3.147 3.945-1.543.736-3.477 1.086-5.537 1.086M107.113 143.768l-23.856 9-26.425 11.603-14.076 6.67-.091 3.64 55.53-24.558 13.67-6.046 7.034-3.111z" fill="#FFF"/><g transform="translate(42.082 140.286)"><mask id="f" fill="#fff"><use xlink:href="#e"/></mask><path d="M.99 30.96l-.072 2.934L73.48 1.804 65.125 3.79l-23.836 8.993L14.88 24.38.99 30.96zm-.408 3.755a.304.304 0 01-.177-.057.318.318 0 01-.144-.273l.09-3.637a.321.321 0 01.182-.283l14.076-6.67L41.044 12.19 64.917 3.18a.49.49 0 01.04-.012L76.742.367a.322.322 0 01.206.607L.713 34.687a.34.34 0 01-.132.028z" fill="#FFF" mask="url(#f)"/></g><path fill="#FFF" d="M5.488 149.533l1.826 1.832 35.452 21.77-.1 1.544-37.224-23.293z"/><path d="M107.113 143.768s27.417-6.441 33.529-8.261l-4.033-4.313-29.496 12.574z" fill="#8EBA68"/><path d="M136.527 131.578l-25.838 11.014c7.429-1.758 24.036-5.725 29.36-7.246l-3.522-3.768zm-29.415 12.513a.322.322 0 01-.125-.618l29.495-12.575a.333.333 0 01.362.075l4.035 4.314a.333.333 0 01.075.305.33.33 0 01-.218.224c-6.053 1.802-33.275 8.202-33.55 8.266a.33.33 0 01-.074.009z" fill="#FFF"/><path d="M56.832 164.371l5.376 2.758s17.373-11.18 21.05-14.361L56.832 164.37z" fill="#8EBA68"/><path d="M57.58 164.394l4.608 2.364c1.505-.973 13.406-8.662 18.835-12.657L57.58 164.394zm4.627 3.057a.34.34 0 01-.148-.037l-5.376-2.757a.32.32 0 01-.175-.295.324.324 0 01.193-.284l26.426-11.604a.318.318 0 01.403.124.32.32 0 01-.061.414c-3.652 3.159-20.377 13.93-21.086 14.387a.334.334 0 01-.176.052zM124.292 136.445l10.404-6.905 4.194-.832-.086 3.455-.902.413-1.294-1.38z" fill="#FFF"/><path d="M134.821 129.841l-7.429 4.934 9.09-3.877a.33.33 0 01.362.075l1.135 1.213.508-.23.074-2.856-3.74.741zm-10.53 6.925a.322.322 0 01-.177-.587l10.403-6.906a.282.282 0 01.116-.05l4.196-.832a.316.316 0 01.272.07.324.324 0 01.113.253l-.086 3.458a.322.322 0 01-.188.284l-.906.412a.324.324 0 01-.37-.071l-1.137-1.218-12.11 5.16a.278.278 0 01-.125.027z" fill="#FFF"/><path d="M30.428 5.596a.178.178 0 01.07-.223L37.95.825c.339-.302.906-.245 1.493.248l2.77 2.322c.14.114 13.596 11.21 28.45 8.489.3-.057.62-.073.952-.041 1.472.14 3.128 1.1 4.596 2.66.345.367.676.772.986 1.192 14.275 19.351 27.874 24.034 28.449 24.225l2.753.887c.933.3 1.813 1.638 1.797 2.729l-.052 3.22c-.657 41.592-12.27 57.787-21.909 64.055v.001l-9.028 5.506-.61-1.782c-1.806.253-3 .173-3.24.151l-.027-.003c-.902-.082-1.919-.668-2.823-1.625l-.027-.029c-1.244-1.321-27.888-30.25-33.706-88.832l-4.023-8.777-4.324-9.825z" fill="#708088"/><path d="M104.216 87.643c-4.031 5.043-15.725 11.91-15.725 11.91s-9.548 7.9-18.597 9.769c1.607 2.046 2.667 3.2 2.89 3.435l.028.03c.902.956 1.92 1.544 2.823 1.626l.027.002c.241.023 1.435.105 3.24-.152l.61 1.782 9.028-5.505c7.461-5.336 12.153-12.588 15.676-22.897" fill="#FFF"/><path d="M37.927.961c.337-.3.906-.244 1.491.248l2.771 2.32c.138.116 13.595 11.213 28.449 8.49.3-.054.621-.072.954-.04 1.47.141 3.127 1.1 4.594 2.66l.001.003c.344.366.675.77.987 1.189 14.272 19.352 27.874 24.034 28.445 24.225l2.755.887c.492.16.965.606 1.303 1.15L87.274 54.77 40.07 34.943a212.313 212.313 0 01-1.32-10.609l-4.022-8.775-4.325-9.826a.178.178 0 01.07-.224L37.927.961z" fill="#A2ADB2"/><g transform="translate(29.551)"><mask id="i" fill="#fff"><use xlink:href="#g"/></mask><path d="M8.376.96c.337-.3.906-.242 1.491.249l2.771 2.321c.138.115 13.594 11.211 28.449 8.49.3-.056.621-.072.954-.041 1.47.14 3.127 1.1 4.594 2.66l.001.002c.344.366.675.77.987 1.19 14.272 19.351 27.874 24.033 28.445 24.224l2.755.888c.492.159.965.605 1.303 1.15L57.723 54.77 10.519 34.945a212.389 212.389 0 01-1.32-10.611l-4.022-8.775L.852 5.732a.178.178 0 01.07-.223L8.376.96z" fill="url(#h)" mask="url(#i)"/></g><path d="M40.153 1.861l-.71-.787c-.587-.493-1.154-.55-1.49-.249l-7.456 4.549a.18.18 0 00-.07.223l-.013 2.227 9.739-5.963z" fill="#708088"/><path d="M78.598 114.213c.136 0 .26.087.304.22l.48 1.401 8.686-5.298c9.56-6.216 21.1-22.334 21.753-63.786l.053-3.22c.014-.94-.78-2.162-1.574-2.419l-2.753-.886c-.58-.19-14.271-4.901-28.608-24.339-.317-.43-.641-.82-.962-1.16-1.407-1.497-3.009-2.43-4.39-2.561a2.974 2.974 0 00-.864.034c-14.872 2.73-28.156-8.095-28.715-8.558l-2.771-2.323c-.424-.356-.845-.453-1.07-.253l-7.394 4.517 4.275 9.71 4.02 8.774c.017.03.027.067.03.1 5.814 58.55 32.485 87.443 33.618 88.645.868.92 1.822 1.479 2.644 1.554.24.021 1.398.107 3.193-.149a.378.378 0 01.045-.003m.61 2.425a.397.397 0 01-.11-.016.33.33 0 01-.196-.202l-.522-1.53c-1.717.218-2.84.137-3.052.116-1.019-.091-2.093-.706-3.054-1.727-1.168-1.238-27.967-30.268-33.812-88.995l-4.001-8.728-4.329-9.83-.001-.004a.5.5 0 01.198-.623L37.783.55c.43-.39 1.182-.296 1.867.277l2.772 2.322c.547.453 13.613 11.087 28.183 8.42.348-.063.695-.081 1.042-.045 1.56.148 3.263 1.128 4.8 2.76.338.36.678.77 1.01 1.22 14.22 19.278 27.724 23.923 28.292 24.112l2.748.884c1.077.349 2.04 1.797 2.021 3.04l-.05 3.22c-.66 41.737-12.36 58.014-22.056 64.32l-9.035 5.511a.32.32 0 01-.168.047" fill="#FFF"/><path d="M93.501 51.03c-6.049-3.356-15.867-10.235-26.1-23.335-.72-.923-1.622-1.448-2.347-1.366-10.402 1.184-20.085-3.143-26.058-6.693-.777-.462-1.399-.068-1.357.848 2.162 48.26 19.077 76.433 26.56 86.647 1.23 1.68 3.494 3.853 4.72 3.578 7.431-1.678 23.787-11.751 25.96-57.251.042-.877-.594-1.995-1.378-2.429zm-28.678 66.674C63.45 116.245 31.141 81.16 30.033 9.697l-.053-3.3c-.017-1.116.87-1.436 1.807-.65l2.77 2.32c.139.114 13.595 11.212 28.451 8.489.3-.055.621-.072.95-.04 1.472.142 3.128 1.1 4.596 2.661.346.366.677.772.986 1.191C83.815 39.72 97.416 44.402 97.99 44.593l2.752.886c.933.302 1.815 1.64 1.798 2.729l-.05 3.22c-1.112 70.183-33.417 68.056-34.79 67.931l-.027-.001c-.902-.082-1.919-.668-2.823-1.625l-.027-.029z" fill="#7F8D94"/><g transform="translate(29.551 4.571)"><mask id="l" fill="#fff"><use xlink:href="#j"/></mask><path d="M63.986 46.457c-6.047-3.355-15.867-10.234-26.1-23.334-.721-.923-1.622-1.448-2.347-1.366-10.402 1.184-20.085-3.14-26.059-6.693-.775-.462-1.398-.068-1.356.848 2.162 48.26 19.079 76.434 26.56 86.647 1.231 1.682 3.494 3.855 4.72 3.579 7.431-1.677 23.787-11.752 25.96-57.25.042-.88-.594-1.995-1.378-2.43zM35.31 113.132C33.935 111.673 1.625 76.588.517 5.127L.465 1.825c-.017-1.116.87-1.436 1.808-.65l2.77 2.321c.138.113 13.592 11.211 28.448 8.49.301-.057.622-.072.955-.041 1.47.14 3.127 1.1 4.593 2.66h.002c.344.368.675.772.986 1.191C54.3 35.148 67.901 39.83 68.472 40.021l2.755.886c.935.302 1.814 1.64 1.798 2.729l-.052 3.22c-1.108 70.185-33.413 68.056-34.788 67.931l-.025-.001c-.902-.082-1.923-.668-2.823-1.625l-.027-.029z" fill="url(#k)" mask="url(#l)"/></g><path d="M38.38 19.764a.372.372 0 00-.192.048c-.16.094-.241.335-.225.659 2.166 48.362 19.25 76.582 26.495 86.47 1.35 1.842 3.428 3.689 4.391 3.455 5.45-1.23 23.417-8.974 25.708-56.954.036-.757-.53-1.753-1.213-2.132-6.364-3.53-16.072-10.457-26.199-23.416-.642-.825-1.45-1.323-2.055-1.245-10.348 1.168-19.995-3.012-26.26-6.735a.902.902 0 00-.45-.15m30.326 91.289c-1.477 0-3.664-2.225-4.767-3.732-7.28-9.934-24.448-38.282-26.624-86.822-.024-.566.173-1.02.542-1.239.363-.213.838-.177 1.305.1 6.178 3.675 15.687 7.807 25.857 6.65.837-.113 1.847.477 2.636 1.487 10.06 12.874 19.692 19.75 26.004 23.25.897.499 1.59 1.72 1.543 2.727-2.315 48.432-20.647 56.293-26.211 57.548-.093.022-.188.03-.285.03M30.8 5.636a.485.485 0 00-.2.041c-.195.093-.304.355-.298.718l.054 3.298c1.107 71.36 33.334 106.336 34.704 107.793l.005.005.027.027c.84.89 1.792 1.447 2.612 1.52.848.078 8.354.528 16.233-6.54 7.989-7.166 17.638-23.578 18.23-61.075l.049-3.217c.016-.943-.777-2.163-1.574-2.42l-2.753-.887c-.578-.192-14.271-4.9-28.608-24.34-.315-.427-.64-.818-.961-1.16-1.407-1.495-3.006-2.427-4.393-2.563a3.292 3.292 0 00-.861.036C48.193 19.603 34.91 8.776 34.35 8.315l-2.77-2.323c-.275-.232-.558-.357-.78-.357m37.763 114.08c-.451 0-.757-.023-.891-.035-1.015-.093-2.091-.704-3.056-1.729l-.025-.027c-1.379-1.462-33.77-36.618-34.88-108.221l-.053-3.3c-.01-.625.233-1.104.666-1.307.485-.229 1.089-.08 1.672.405l2.768 2.32c.548.452 13.617 11.087 28.187 8.418.338-.063.69-.075 1.04-.043 1.561.151 3.265 1.13 4.798 2.762.343.36.68.772 1.011 1.22 14.219 19.275 27.722 23.921 28.29 24.109l2.753.886c1.074.35 2.037 1.798 2.02 3.04l-.051 3.218c-.596 37.729-10.36 54.293-18.444 61.545-6.811 6.11-13.39 6.74-15.805 6.74" fill="#FFF"/><path d="M38.995 19.636c5.974 3.55 15.657 7.877 26.06 6.693.724-.082 1.626.443 2.346 1.366 10.232 13.1 20.051 19.979 26.1 23.334.786.434 1.42 1.552 1.378 2.429-2.173 45.5-18.53 55.575-25.96 57.251-1.226.275-3.489-1.898-4.72-3.578-7.483-10.214-24.398-38.388-26.56-86.647-.04-.916.58-1.31 1.356-.848" fill="#EA955B"/><g transform="translate(36.712 18.857)"><mask id="o" fill="#fff"><use xlink:href="#m"/></mask><path d="M2.32.779C8.294 4.33 17.976 8.655 28.38 7.47c.726-.082 1.626.443 2.346 1.367 10.234 13.1 20.053 19.978 26.1 23.333.786.436 1.42 1.552 1.378 2.43-2.173 45.499-18.53 55.574-25.96 57.25-1.227.278-3.49-1.896-4.72-3.578C20.041 78.061 3.125 49.886.963 1.63.923.71 1.543.316 2.32.779" fill="url(#n)" mask="url(#o)"/></g><path d="M38.417 19.764a.357.357 0 00-.19.048c-.16.094-.244.335-.227.659 2.166 48.359 19.25 76.58 26.495 86.47 1.348 1.842 3.434 3.689 4.39 3.455 5.45-1.23 23.418-8.974 25.71-56.954.035-.757-.53-1.753-1.214-2.132-6.362-3.53-16.072-10.455-26.199-23.416-.643-.825-1.444-1.318-2.055-1.245-10.354 1.166-19.996-3.012-26.26-6.735a.913.913 0 00-.45-.15m30.323 91.289c-1.474 0-3.661-2.225-4.764-3.732-7.28-9.936-24.448-38.288-26.623-86.822-.023-.566.172-1.02.543-1.239.354-.213.83-.179 1.303.1 6.178 3.673 15.667 7.807 25.856 6.65.842-.107 1.85.477 2.637 1.487C77.75 40.373 87.384 47.25 93.697 50.748c.9.5 1.59 1.722 1.542 2.727-2.315 48.432-20.648 56.293-26.213 57.548-.091.022-.186.03-.286.03" fill="#FFF"/><path d="M38.995 19.636a58.475 58.475 0 003.645 1.993c2.545 46.995 19.072 74.522 26.447 84.586.861 1.178 2.224 2.578 3.387 3.228a16.988 16.988 0 01-3.555 1.266c-1.226.275-3.489-1.898-4.72-3.578-7.483-10.214-24.398-38.388-26.56-86.647-.04-.916.58-1.31 1.356-.848" fill="#E7823D"/><g transform="translate(36.712 18.857)"><mask id="r" fill="#fff"><use xlink:href="#p"/></mask><path d="M2.284.779A57.559 57.559 0 005.93 2.77C8.474 49.766 25 77.293 32.374 87.36c.863 1.177 2.224 2.577 3.39 3.227-1.317.63-2.525 1.032-3.556 1.266-1.226.277-3.49-1.897-4.72-3.579C20.004 78.061 3.09 49.886.927 1.627.885.71 1.507.317 2.283.779" fill="url(#q)" mask="url(#r)"/></g><path d="M42.532 21.63a58.475 58.475 0 01-3.645-1.993c-.777-.463-1.396-.068-1.357.848.043.955.636 7.964.69 8.905l4.677-3.723c-.091-1.259-.295-2.75-.365-4.038" fill="#FFF"/><path d="M38.38 19.764a.372.372 0 00-.192.048c-.16.094-.241.335-.225.659 2.166 48.362 19.25 76.582 26.495 86.47 1.35 1.842 3.428 3.689 4.391 3.455.951-.215 1.941-.552 2.952-.999-1.099-.762-2.246-1.998-2.973-2.989-7.109-9.702-23.902-37.343-26.5-84.575a58.557 58.557 0 01-3.499-1.92.902.902 0 00-.45-.15m30.327 91.29c-1.477 0-3.664-2.225-4.767-3.732-7.28-9.934-24.448-38.282-26.624-86.822-.024-.566.173-1.02.542-1.239.363-.213.838-.177 1.305.1 1.173.7 2.392 1.366 3.623 1.982a.32.32 0 01.177.27c2.555 47.171 19.303 74.75 26.385 84.416.802 1.094 2.129 2.487 3.285 3.134a.321.321 0 01-.018.571c-1.237.593-2.456 1.025-3.623 1.29-.093.02-.188.03-.285.03M96.952 44.502a.323.323 0 01-.16-.602l7.826-4.425a.319.319 0 01.438.12.32.32 0 01-.12.437l-7.824 4.429a.341.341 0 01-.16.041M65.723 17.176a.321.321 0 01-.16-.602l7.825-4.429a.318.318 0 01.439.122.321.321 0 01-.12.437l-7.825 4.429a.328.328 0 01-.159.043" fill="#FFF"/><path fill="#CC8E58" d="M79.644 50.891l-1.552-1.157-2.261 1.19-3.561 3.337-1.697-1.4-1.813-1.136-2.628-.39-2.585-1.385-1.626-.062-1.435.266-3.292-5.234-1.889-2.277-1.11.234-.369 1.497.471 3.901.262 2.172.67 2.537.312 2.334 1.173 3.273.388 2.99-.007 3.034.253 3.621 1.124 2.668 1.545 2.454.338.535 1.386 3.87 1.811 2.57.668.953 3.269 2.632 3.324.884.677-.268 1.888-.728 1.318-2.754.368-.216 1.724-1.028 1.209-1.818-.036-3.995-.322-3.582.21-3.12 1.247-2.705.184-2.49.663-2.412.136-2.379.243-4.307z"/><path fill="#CC8E58" d="M71.688 62.417l-1.218-.793-.558-3.511-3.3 4.754-2.616-5.268-1.042-2.104-.25 3.052-1.068-.129-.727 1.161.613 2.268.162-1.005 1.15-.204.947 2.21.102 1.281-.57 4.04-.18 3.078 1.962-2.468 1.15-.05.368-5.862.88 6.423 1.237 1.136 2.408 4.617-.485-3.539-1.004-4.909-.002-1.282.866-1.536 1.345 1.266.283 1.261.51-1.946z"/><path fill="#2D2113" d="M59.283 50.506l-2.025-4.096-1.896-1.615-.657.082-.01 2.095.438 3.754 1.235 3.27 1.751 2.337 1.359-1.807z"/><path fill="#2C1800" d="M66.583 62.17l-.759-7.335.467.296z"/><path fill="#A8633A" d="M62.141 50.578l-1.656-.424-3.292-5.234-1.887-2.276-1.11.233-.37 1.495.47 3.904.667.993-.269-2.299.013-2.093.655-.082 1.896 1.615 2.024 4.096.197 4.02-1.36 1.807-.423 5.148 1.958 1.991 1.286-2.06.582.435-.61-2.268.493-.794.231-.366 1.067.128.25-3.052 1.098.268.865-1.26.9 2.276.797 6.088-.412-9.916z"/><path fill="#CC8E58" d="M58.472 70.904l-.577-3.61.627-3.531 1.133-.291-1.96-1.99 3.872-9.87-2.09 2.913-1.358 1.808-1.404 2.257.38 6.025.252 3.621z"/><path fill="#A8633A" d="M61.35 57.74l1.605-2.245-.25 3.052-1.07-.129-.306.491z"/><path fill="#EBE8DB" d="M63.849 75.93l-1.233-1.995-1.393-5.69.295-2.642-.453-2.679 2.249 5.243 1.285-.328 1.647.89-.068 1.356-1.085.284-.277 1.15.241 1.22.346.675-.604 2.375-.857-.427-.755-1.64.068.949z"/><path fill="#5D2900" d="M59.479 54.526l-.196-4.02 1.445 1.316.84-.209z"/><path fill="#5D2900" d="M58.958 50.895l.52 3.63-.195-4.02-1.118-2.224z"/><path fill="#A8633A" d="M56.715 58.59l-1.173-3.27-.983-4.874-.263-2.17.666.991.17 1.46 1.237 3.269 1.749 2.336zM61.522 61.846l-.123-1.578 1.577-.595-.143.965-1.148.205z"/><path fill="#D6B795" d="M63.122 64.17l-1.005-.869-.596-1.455-.582-.434-.264.416.392 1.096.375.874 1.871 4.37.57-4.038z"/><path fill="#DBD5C3" d="M65.116 78.837l-.538-2.266-.73-.641-1.232-1.995-.484-1.959-1.167 1.905-.61.011 1.385 3.87 1.812 2.571 1.247-.24 1.234-.235z"/><path fill="#2D2113" d="M73.756 55.62l2.14-3.031 2.346-.354.904.634.24 2.518-.211 4.102-1.338 2.723-2.051 1.073-1.883-3.3z"/><path fill="#2C1800" d="M69.672 66.605l-.025-1.293.866-1.535 1.345 1.266.283 1.26-.564 1.04-1.07.003z"/><g><g transform="translate(68.91 63)"><mask id="t" fill="#fff"><use xlink:href="#s"/></mask><path d="M2.055 2.423c.458.162.842-.103.94-.608.01.056.01.11.01.173.004.697-.412 1.102-.928.92-.512-.181-.936-.88-.95-1.575 0-.01 0-.021-.002-.031.15.513.514.973.93 1.121" fill="#4D2F00" mask="url(#t)"/></g><g transform="translate(68.91 63)"><mask id="v" fill="#fff"><use xlink:href="#u"/></mask><path d="M2.055 2.423c-.416-.148-.78-.608-.93-1.121.004-.676.404-1.094.92-.919.484.167.886.79.95 1.432-.098.505-.482.77-.94.608" fill="#2C1800" mask="url(#v)"/></g><g transform="translate(68.91 63)"><mask id="x" fill="#fff"><use xlink:href="#w"/></mask><path d="M2.456 1.829l.488-.022s-.19-.706-.924-.821c0 .011.376.545.436.843" fill="#ECD9CB" mask="url(#x)"/></g></g><g><path fill="#2C1800" d="M67.064 62.143l.166-7.09-.457-.044z"/><path fill="#262626" d="M69.345 72.22l-1.182-1.359-.755-.35-.749-.35-1.08.288-.278 1.167.24 1.236.983 1.952 1.1 1.006 1.078.07.893-1.061.156-1.075z"/><path fill="#000" d="M68.022 73.777l.401.386.51.248.35-.795-.758-1.116-1.07-.833-1.032-.164-.667.427.416 1.141.494.24.377-.008-.304.48-.851-.248.635 1.268 1.1 1.008 1.079.069.575-.69-.893-.608z"/><path fill="#000" d="M71.065 78.86l-.92-.464-2.498-2.034-2.36-.42-.858-.434-.754-1.66.068.962.593 1.275 1.013.91 1.273-.217 1.082.987 1.06.096 1.402 1.597 1.054.13.56-.738-.006-.977z"/><path fill="#918A85" d="M70.166 79.458l-1.401-1.597-1.061-.098-1.082-.985-1.273.218 1.366 1.692 1.062.836 1.05.256z"/><path fill="#5C524A" d="M70.146 78.396l-.868-3.204-.577.687-1.077-.068-1.1-1.007-.637-1.27-.602 2.409 2.362.42z"/><path fill="#EBE8DB" d="M70.166 79.458l-1.339.322-1.05-.256-1.062-.836-1.366-1.692-.284-.26.535 2.295 1.416 1.61.836.737.82.14 1.394-.15.395-1.875z"/><path fill="#A8633A" d="M70.855 53.298l1.882.829 3.552-3.382 2.256-1.205 1.548 1.172.677 2.137-.243 4.365-.822.599.129-2.544-.238-2.552-.901-.644-2.34.358-2.135 3.075.146 4.422 1.879 3.344 1.06 6.475-2.293.28-1.755-3.628-.65-.069.51-1.972-.658-1.348-.302-.619-1.214-.803-.56-3.558-1.188-.604-1.04-2.03-.751 1.708-.31 5.743-.412-10.047z"/><path fill="#CC8E58" d="M77.245 80.015l.387-3.603-1.166-4.856-1.453-1.53 2.293-.28-5.697-14.856 2.757 5.038 1.877 3.344 2.06 4.06.11 6.793.037 4.046z"/><path fill="#A8633A" d="M72.737 54.127l-1.693-1.419-1.809-1.15-2.621-.397-2.579-1.402-1.621-.064-1.432.27 1.651.429 4.049 2.406 4.173.498zM72.427 61.892l-2.043-3.862.559 3.558 1.214.803.404.829z"/><path fill="#EBE8DB" d="M71.22 79.59l1.232-.851 1.11-4.897-.6-3.288.286-2.57-2.125 3.616-1.46-1.628-1.69-.616.19 1.506 1.182 1.359.405 1.523-.155 1.074-.318.372.868 3.207.92.463.71-.986.006.977z"/><path fill="#A8633A" d="M67.094 62.848l3.29-4.817-1.188-.605-1.04-2.03.145-1.28-1.618-1.317-1.529.174.247 1.399-.863 1.277-1.094-.271z"/><path fill="#5D2900" d="M74.366 59.928l-.147-4.422-1.614.297-.996-.912z"/><path fill="#5D2900" d="M74.657 56.223l-.291 3.706-.147-4.423 1.17-1.636z"/><path fill="#A8633A" d="M78.303 67.333l1.243-2.742.845-4.967.136-2.41-.822.599-.08 1.612-1.334 2.76-2.047 1.087zM72.608 66.33v-1.65l-1.873-2.097.25 1.187 1.34 1.283z"/><path fill="#CC8E58" d="M69.036 65.067l.383-5.617-2.325 3.397z"/><path fill="#807664" d="M71.96 84.804l-2.8-3.344-.488.058-.82-.141-.836-.735-.502-.575-2.475.48.667.967 3.262 2.666 3.316.895z"/><path fill="#DBD5C3" d="M60.572 62.779l-.418.682-1.13.295-.627 3.577.575 3.66 1.543 2.485-.229-2.346.27-1.944.718-2.477-.447-4.365zM76.467 71.556l-1.453-1.53-.583-1.199-.351-.744-.13 4.45 1.112 3.58.523 2.524-.059 2.419 1.72-1.04.385-3.603z"/><path fill="#D6B795" d="M73.257 66.4l-.649-.07-.562 1.054-1.068.003-.855-.761 1.001 4.974 1.761-3 .363-.615.364-.858z"/><path fill="#CFC7AF" d="M74.08 68.084l-.468-.956-.365.856-.285 2.57.6 3.29-.727 3.23 1.575 3.477.748.724 1.557-.945z"/><path fill="#DBD5C3" d="M74.41 80.55l-1.576-3.477-.382 1.666-1.232.85-.759-.097-.395 1.875-.905.094 1.366 1.632 1.432 1.712 1.884-.74 1.314-2.79z"/><path fill="#CFC7AF" d="M60.826 62.346l.343-.55.391 1.11.452 2.715-.295 2.676.908 3.782-1.166 1.93-.608.012-1.41-2.278z"/><path fill="#2C1800" d="M64.349 64.118l-.08-1.288-.945-2.24-1.147.206-.162 1.019.595 1.473 1.001.879z"/></g><g><g transform="translate(60.91 60)"><mask id="z" fill="#fff"><use xlink:href="#y"/></mask><path d="M1.601 2.604C1.256 2.457.94 1.945.823 1.389c-.001.05.002.101.007.163.051.677.403 1.35.793 1.515.388.167.67-.24.627-.921-.002-.01-.002-.02-.003-.032-.079.41-.33.623-.645.49" fill="#4D2F00" mask="url(#z)"/></g><g transform="translate(60.91 60)"><mask id="B" fill="#fff"><use xlink:href="#A"/></mask><path d="M1.601 2.604c.316.133.567-.08.646-.49-.055-.672-.407-1.35-.799-1.51-.363-.15-.625.2-.625.785.117.556.433 1.068.778 1.215" fill="#2C1800" mask="url(#B)"/></g><g transform="translate(60.91 60)"><mask id="D" fill="#fff"><use xlink:href="#C"/></mask><path d="M1.242 1.754l-.38-.338s.093-.568.655-.204c0 .012-.25.292-.275.542" fill="#ECD9CB" mask="url(#D)"/></g></g><path fill="#D9AA8B" d="M66.553 62l-.486 7.301.838.347.846.352z"/></g></svg>