<?xml version="1.0" encoding="utf-8"?>
<!-- Generator: Adobe Illustrator 15.0.0, SVG Export Plug-In . SVG Version: 6.00 Build 0)  -->
<!DOCTYPE svg PUBLIC "-//W3C//DTD SVG 1.1//EN" "http://www.w3.org/Graphics/SVG/1.1/DTD/svg11.dtd">
<svg version="1.1" id="Layer_1" xmlns="http://www.w3.org/2000/svg" xmlns:xlink="http://www.w3.org/1999/xlink" x="0px" y="0px"
	 width="220px" height="220px" viewBox="0 0 220 220" enable-background="new 0 0 220 220" xml:space="preserve">
<path fill="#FFFFFF" d="M110,14.266c-52.873,0-95.734,42.862-95.734,95.734c0,52.873,42.862,95.734,95.734,95.734
	c52.873,0,95.734-42.861,95.734-95.734C205.734,57.127,162.873,14.266,110,14.266z M110,197.839
	c-48.511,0-87.838-39.326-87.838-87.839c0-48.511,39.327-87.838,87.838-87.838c48.513,0,87.839,39.327,87.839,87.838
	C197.839,158.513,158.513,197.839,110,197.839z"/>
<path fill="#2A1B42" d="M180.639,159.374c-66.3,0-121.609-47.055-134.355-109.589C31.436,65.491,22.328,86.681,22.328,110
	c0,48.42,39.252,87.672,87.672,87.672c30.117,0,56.685-15.188,72.469-38.321C181.858,159.358,181.251,159.374,180.639,159.374z"/>
<path fill="#4D3077" d="M180.983,159.531c0.458,0,0.914-0.01,1.372-0.018c9.66-14.09,15.316-31.14,15.316-49.514
	c0-48.419-39.252-87.672-87.672-87.672c-25.176,0-47.871,10.616-63.86,27.611C59.127,112.509,114.562,159.531,180.983,159.531z"/>
<path fill="#FFFFFF" d="M115.302,93.254c2.868-0.005,5.191-2.336,5.191-5.203c0-2.873-2.329-5.203-5.202-5.203l-40.258-0.012
	c-0.405,0-0.739,0.328-0.739,0.739c0,1.436,0,4.47,0,4.494c0,2.789,2.193,5.077,4.94,5.238
	C79.259,93.302,115.298,93.254,115.302,93.254z"/>
<path fill="#FFFFFF" d="M125.196,52.4L125.196,52.4c-0.309-0.006-42.636-0.012-42.636-0.012c-0.405,0-0.738,0.328-0.738,0.739
	c0,1.437,0,4.47,0,4.494c0,2.79,2.192,5.078,4.94,5.239c0.03,0,36.217-0.083,36.217-0.083l0,0c1.348,0,2.599,0.06,2.599,0.06
	c13.344,0.649,23.97,11.723,23.97,25.228c0,13.636-10.83,24.691-24.364,25.132v-0.006c-0.352,0.012-38.125-0.011-38.125-0.011
	c-0.262,0-0.512,0.017-0.763,0.053c-2.396,0.352-4.255,2.331-4.428,4.78v51.485c0,0.405,0.328,0.738,0.739,0.738
	c1.437,0,4.471,0,4.494,0c2.789,0,5.078-2.192,5.238-4.939c0-0.02,0.018-40.938,0.018-40.938c0-0.012,0-0.023,0-0.03
	c0.018-0.356,0.322-0.637,0.679-0.637c0.007,0,32.916-0.023,32.916-0.023c2.831-0.127,5.577-0.585,8.2-1.336
	c14.947-4.266,25.889-17.951,25.889-34.262C160.062,68.629,144.53,52.847,125.196,52.4z"/>
<linearGradient id="SVGID_1_" gradientUnits="userSpaceOnUse" x1="2.75" y1="110" x2="110" y2="110">
	<stop  offset="0" style="stop-color:#2A1B42"/>
	<stop  offset="1" style="stop-color:#4D3077"/>
</linearGradient>
<path fill="url(#SVGID_1_)" d="M110,205.734c-52.873,0-95.734-42.861-95.734-95.734c0-52.873,42.862-95.734,95.734-95.734V2.75
	C50.768,2.75,2.75,50.768,2.75,110c0,59.233,48.018,107.25,107.25,107.25V205.734z"/>
<linearGradient id="SVGID_2_" gradientUnits="userSpaceOnUse" x1="110" y1="110" x2="217.25" y2="110">
	<stop  offset="0" style="stop-color:#4D3077"/>
	<stop  offset="1" style="stop-color:#662F90"/>
</linearGradient>
<path fill="url(#SVGID_2_)" d="M110,2.75v11.516c52.873,0,95.734,42.862,95.734,95.734c0,52.873-42.861,95.734-95.734,95.734v11.516
	c59.233,0,107.25-48.017,107.25-107.25C217.25,50.768,169.233,2.75,110,2.75z"/>
</svg>
