<?xml version="1.0" encoding="UTF-8"?>
<svg width="201px" height="55px" viewBox="0 0 201 55" version="1.1" xmlns="http://www.w3.org/2000/svg" xmlns:xlink="http://www.w3.org/1999/xlink">
    <title>Group 2</title>
    <g id="Symbols" stroke="none" stroke-width="1" fill="none" fill-rule="evenodd">
        <g id="Menu" fill-rule="nonzero">
            <g id="Group-2">
                <path d="M66.3872389,22.485459 L65.0656213,22.485459 L65.0656213,34.7530565 L66.4252209,34.7530565 C70.0831174,34.7530565 72.4674551,32.3078926 72.4674551,28.6192578 C72.4674551,24.9640454 70.0420349,22.4862186 66.3872389,22.4862186 L66.3872389,22.485459 Z M66.3996412,18.4185416 C69.5870263,18.4185416 72.0829845,19.6931563 73.8138773,21.422014 C75.6269351,23.2549374 76.5330764,25.6643999 76.5330764,28.6511611 C76.5330764,31.6379223 75.6261599,34.0390292 73.8138773,35.8552413 C71.8171107,37.848441 69.3451819,38.8458005 66.3996412,38.8458005 L61,38.8458005 L61,18.4314548 L66.3996412,18.4314548 L66.3996412,18.4185416 Z M83.4690497,24.2219128 C82.2598277,25.4555089 81.6559918,26.9215438 81.6559918,28.6200174 C81.6559918,30.3344426 82.2606028,31.8004775 83.4690497,33.0166028 C84.6689699,34.2243724 86.1246872,34.8290169 87.8369765,34.8290169 C89.5236861,34.8290169 90.9755277,34.225132 92.1925011,33.0166028 C93.4094745,31.8088331 94.017186,30.3427982 94.017186,28.6192578 C94.017186,26.9131882 93.4094745,25.4471533 92.1925011,24.2219128 C90.9832791,23.0057875 89.5322127,22.397345 87.8362014,22.397345 C86.1161606,22.397345 84.6604434,23.0057875 83.4690497,24.2219128 M95.1124621,21.3080735 C97.1355835,23.343811 98.146369,25.7897345 98.146369,28.6450843 C98.146369,31.5087897 97.1355835,33.9501555 95.1124621,35.9691818 C93.0986424,37.9798524 90.6732222,38.9848079 87.8369765,38.9848079 C84.9922043,38.9772119 82.566784,37.9714968 80.5607158,35.9691818 C78.5468961,33.9410403 77.5399863,31.5004341 77.5399863,28.6450843 C77.5399863,25.7980901 78.5476713,23.3521667 80.5607158,21.3073139 C82.5838372,19.2715764 85.0084823,18.2537076 87.8369765,18.2537076 C90.6646956,18.2537076 93.0901158,19.2715764 95.1124621,21.3073139 M109.424689,18.2924474 C112.557815,18.2924474 115.055323,19.6810027 116.713352,21.3202272 L113.805018,24.2477393 C112.571767,23.0224987 111.119926,22.4102583 109.450269,22.4102583 C107.746506,22.4102583 106.294665,23.0224987 105.093969,24.2477393 C103.886298,25.4638646 103.281687,26.9291398 103.281687,28.6450843 C103.281687,30.3595095 103.886298,31.8255444 105.094745,33.0424293 C106.286138,34.257795 107.73798,34.866997 109.450269,34.866997 C112.087303,34.866997 114.125152,33.2171381 115.013465,31.2930623 L109.223152,31.2930623 L109.223152,27.3773059 L119.646491,27.3773059 C119.936394,31.1950734 118.691516,33.9668668 116.687773,35.9691818 C114.665426,37.9882081 112.240006,38.9977212 109.412287,38.9977212 C106.558988,38.9977212 104.137444,37.9882081 102.149204,35.9691818 C100.134609,33.9585112 99.1276992,31.5171453 99.1276992,28.6450843 C99.1276992,25.7980901 100.135384,23.3521667 102.148429,21.3073139 C104.14597,19.2715764 106.56674,18.2537076 109.411512,18.2537076 L109.424689,18.2916878 L109.424689,18.2924474 Z M133.681217,18.3684077 L133.681217,22.4611517 L125.524395,22.4611517 L125.524395,26.5789626 L131.641818,26.5789626 L131.641818,30.6724662 L125.524395,30.6724662 L125.524395,34.7910367 L133.681217,34.7910367 L133.681217,38.8708674 L121.445596,38.8708674 L121.445596,18.3684077 L133.681217,18.3684077 Z M144.972715,38.9855675 C142.135694,38.9772119 139.714925,37.9714968 137.709632,35.9691818 C135.695037,33.9410403 134.688127,31.5004341 134.688127,28.6443247 C134.688127,25.7980901 135.695037,23.3521667 137.708857,21.3080735 C139.731978,19.272336 142.152747,18.2544672 144.97194,18.2544672 L144.959538,18.304601 C148.092663,18.304601 150.58397,19.70531 152.261378,21.3331404 L149.353044,24.2606525 C148.128319,23.0437676 146.671052,22.4353252 144.985117,22.4353252 C143.272828,22.4353252 141.820986,23.0437676 140.628818,24.2606525 C139.421146,25.4934891 138.816535,26.959524 138.816535,28.6572379 C138.816535,30.3724228 139.421146,31.8384576 140.629593,33.0553425 C141.829513,34.2631122 143.280579,34.866997 144.985117,34.866997 C146.696631,34.866997 148.157,34.2585546 149.364671,33.0424293 L152.27378,35.9684222 C150.608775,37.6296752 148.138396,38.9840483 144.972715,38.9840483 M163.992381,32.1172321 L162.142117,27.7958475 L160.266272,32.1172321 L163.992381,32.1172321 Z M162.128939,18 L171.394215,38.8458005 L166.975904,38.8458005 L165.603902,35.7413007 L158.655527,35.7413007 L157.283525,38.8458005 L152.876841,38.8458005 L162.128939,18 Z M177.803867,34.8244592 C178.930149,34.8244592 180.173477,33.8825508 180.173477,32.7492223 C180.173477,30.883636 177.68682,30.6238516 176.283813,30.1346669 C173.809559,29.2854301 171.625208,27.2405773 171.625208,24.4589091 C171.625208,21.0141069 174.400217,18.2385155 177.82247,18.2385155 C180.942418,18.2385155 183.527518,20.5682196 183.946094,23.5975186 L179.896751,24.4589091 C179.896751,23.3377342 178.961154,22.3958258 177.8465,22.3958258 C176.714792,22.3958258 175.779195,23.3377342 175.779195,24.4710627 C175.779195,26.3115821 178.092995,26.8007668 179.502204,27.2223468 C182.062499,27.9659987 184.321263,29.9295739 184.321263,32.7735296 C184.321263,36.2183318 181.250149,39 177.834873,39 C174.695546,39 171.858525,36.6832091 171.396541,33.6409969 L175.446659,32.7735296 C175.446659,33.9136946 176.677585,34.8434493 177.82247,34.8434493 L177.803867,34.8244592 Z M190.149558,18.4185416 L190.149558,26.5918759 L196.934379,26.5918759 L196.934379,18.4185416 L201,18.4185416 L201,38.8458005 L196.934379,38.8458005 L196.934379,30.6595529 L190.149558,30.6595529 L190.149558,38.8458005 L186.083162,38.8458005 L186.083162,18.4185416 L190.149558,18.4185416 Z" id="Shape" fill="#FFFFFF"></path>
                <g id="grafana_icon-(1)">
                    <g id="Group">
                        <polygon id="Path" fill="#CC8E58" points="50.7 0.807909605 48.053012 0.124293785 44.2783133 2.09745763 37.9192771 7.08474576 37.9192771 7.08474576 34.7084337 6.15254237 31.2313253 5.56214689 26 6.15254237 20.7686747 5.56214689 17.2915663 6.15254237 14.0807229 7.08474576 14.0807229 7.08474576 7.72168675 2.09745763 3.94698795 0.124293785 1.3 0.807909605 0 2.75 0 7.4420904 0 10.1610169 0.924096386 13.2528249 1.01807229 16.3446328 3.06987952 20.3997175 3.21084337 24.6723164 2.27108434 29.4887006 1.81686747 35.3771186 4.13493976 39.1214689 7.75301205 42.1822034 8.55180723 42.8502825 11.4337349 48.8008475 15.913253 51.9548023 15.913253 51.9548023 17.573494 53.1355932 26 54.8757062 26 54.8757062 26 54.8757062 26 54.8757062 26 54.8757062 34.426506 53.1355932 36.086747 51.9548023 40.5662651 48.8008475 43.4481928 42.8502825 44.246988 42.1822034 47.8650602 39.1214689 50.1831325 35.3771186 49.7289157 29.4887006 48.7891566 24.6723164 48.9301205 20.3997175 50.9819277 16.3446328 51.0759036 13.2528249 52 10.1610169 52 7.4420904 52 2.75"></polygon>
                        <polygon id="Path" fill="#CC8E58" points="36.760241 17.3079096 34.3012048 16.9039548 33.2674699 12.7090395 26 20.6793785 20.7686747 14.9463277 20.7686747 14.9463277 18.7325301 12.7090395 17.6987952 16.9039548 15.239759 17.3079096 13.2975904 19.3432203 14.3313253 22.2485876 14.9108434 20.6949153 17.6674699 19.7316384 19.546988 22.3262712 19.5939759 24.1285311 19.5939759 24.1285311 17.573494 30.6850282 16.5710843 35.8432203 21.8337349 30.3742938 24.5746988 29.4887006 26 20.6793785 27.4253012 29.4887006 30.1662651 30.3742938 35.4289157 35.8432203 34.426506 30.6850282 32.4060241 24.1285311 32.4060241 24.1285311 32.453012 22.3262712 34.3325301 19.7316384 37.0891566 20.6949153 37.6686747 22.2485876 38.7024096 19.3432203"></polygon>
                        <g id="Path">
                            <polygon fill="#2D2113" points="11.2927711 8.0480226 7.53373494 3.85310734 3.52409639 2.65677966 1.95783133 3.01412429 1.34698795 5.60875706 1.34698795 10.2542373 3.49277108 14.0451977 7.22048193 16.3446328 10.9168675 13.1596045"></polygon>
                            <polygon fill="#2C1800" points="26 19.7316384 25.0445783 10.5183616 26 10.6737288"></polygon>
                            <polygon fill="#A8633A" points="17.6674699 6.89830508 14.0807229 7.08474576 7.72168675 2.09745763 3.94698795 0.124293785 1.3 0.807909605 0 2.75 0 7.4420904 1.34698795 8.42090395 1.34698795 5.60875706 1.95783133 3.01412429 3.52409639 2.65677966 7.53373494 3.85310734 11.2927711 8.0480226 10.9168675 13.1596045 7.22048193 16.3446328 4.79277108 24.1285311 9.33493976 25.8841808 13 21.9689266 14.3313253 22.2485876 13.2975904 19.3432203 14.6289157 17.9449153 15.239759 17.3079096 17.6987952 16.9039548 18.7325301 12.7090395 21.1289157 12.5225989 23.1493976 10.5183616 24.8409639 12.9731638 26 20.6793785 26 8.0480226"></polygon>
                            <polygon fill="#CC8E58" points="4.13493976 39.1214689 3.63373494 33.3262712 6.32771084 27.1115819 9.33493976 25.8841808 4.79277108 24.1285311 16.2421687 8.42090395 10.9168675 13.1596045 7.22048193 16.3446328 3.06987952 20.3997175 2.27108434 29.4887006 1.81686747 35.3771186"></polygon>
                            <polygon fill="#A8633A" points="14.6915663 16.5310734 18.7325301 12.7090395 17.6987952 16.9039548 15.239759 17.3079096 14.4253012 18.1624294"></polygon>
                            <polygon fill="#EBE8DB" points="17.573494 43.3785311 14.6915663 40.9081921 12.2638554 32.3474576 13.5795181 27.9194915 13 24.1285311 17.573494 30.6850282 20.7686747 29.2556497 24.5746988 29.4887006 24.2614458 31.6483051 21.6144578 32.8912429 20.7686747 34.9731638 21.1915663 36.8064972 21.9590361 37.6610169 20.0795181 42.2754237 17.9180723 42.2754237 16.2421687 40.0381356 16.2421687 41.6539548"></polygon>
                            <polygon fill="#5D2900" points="10.9168675 13.1596045 11.2927711 8.0480226 14.3313253 9.0579096 16.2421687 8.42090395"></polygon>
                            <polygon fill="#5D2900" points="10.4626506 8.68502825 10.9168675 13.1596045 11.2927711 8.0480226 9.1939759 5.76412429"></polygon>
                            <polygon fill="#A8633A" points="3.06987952 20.3997175 1.01807229 16.3446328 0 10.1610169 0 7.4420904 1.34698795 8.42090395 1.34698795 10.2542373 3.49277108 14.0451977 7.22048193 16.3446328"></polygon>
                            <polygon fill="#A8633A" points="14.3313253 22.2485876 14.3313253 20.0423729 18.153012 18.3022599 17.6674699 19.7316384 14.9108434 20.6949153"></polygon>
                            <polygon fill="#D6B795" points="17.7771084 24.6723164 15.5060241 24.019774 14.3313253 22.2485876 13 21.9689266 12.2638554 22.7457627 13 24.1285311 13.7518072 25.200565 17.573494 30.6850282 19.5939759 24.1285311"></polygon>
                            <polygon fill="#DBD5C3" points="20.4240964 47.5268362 19.3746988 43.8757062 17.573494 43.3785311 14.6915663 40.9081921 13.8301205 37.8940678 10.2433735 42.2754237 8.55180723 42.8502825 11.4337349 48.8008475 15.913253 51.9548023 19.3746988 50.2146893 22.6795181 48.5522599"></polygon>
                        </g>
                        <polygon id="Path" fill="#2D2113" points="40.7072289 8.0480226 44.4662651 3.85310734 48.4759036 2.65677966 50.0421687 3.01412429 50.653012 5.60875706 50.653012 10.2542373 48.5072289 14.0451977 44.7795181 16.3446328 41.0831325 13.1596045"></polygon>
                        <g transform="translate(32.421687, 19.731638)" id="Path">
                            <polygon fill="#2C1800" points="0.0313253012 4.39689266 0.0313253012 2.59463277 1.91084337 0 4.66746988 0.963276836 5.24698795 2.51694915 4.07228916 4.28813559 1.80120482 4.94067797"></polygon>
                            <g transform="translate(0.626506, 0.000000)">
                                <g>
                                    <path d="M1.76987952,3.12288136 C2.6313253,3.12288136 3.35180723,2.53248588 3.53975904,1.74011299 C3.55542169,1.81779661 3.55542169,1.89548023 3.55542169,1.98870056 C3.55542169,3.01412429 2.77228916,3.83757062 1.80120482,3.83757062 C0.830120482,3.83757062 0.0469879518,3.01412429 0.0469879518,1.98870056 C0.0469879518,1.97316384 0.0469879518,1.95762712 0.0469879518,1.9420904 C0.313253012,2.62570621 0.986746988,3.12288136 1.76987952,3.12288136 Z" fill="#4D2F00"></path>
                                    <path d="M1.76987952,3.12288136 C0.986746988,3.12288136 0.313253012,2.62570621 0.0469879518,1.9420904 C0.078313253,0.947740113 0.845783133,0.139830508 1.80120482,0.139830508 C2.6939759,0.139830508 3.43012048,0.838983051 3.53975904,1.74011299 C3.35180723,2.53248588 2.6313253,3.12288136 1.76987952,3.12288136 Z" fill="#2C1800"></path>
                                </g>
                                <path d="M2.5373494,2.03531073 L3.44578313,1.75564972 C3.44578313,1.75564972 3.10120482,0.823446328 1.73855422,1.02542373 C1.73855422,1.04096045 2.42771084,1.63135593 2.5373494,2.03531073 Z" fill="#ECD9CB"></path>
                            </g>
                        </g>
                        <polygon id="Path" fill="#2C1800" points="26 19.7316384 26.9554217 10.5183616 26 10.6737288"></polygon>
                        <polygon id="Path" fill="#262626" points="30.3855422 32.8912429 27.7385542 31.6483051 26 31.6483051 26 31.6483051 24.2614458 31.6483051 21.6144578 32.8912429 20.7686747 34.9731638 21.1915663 36.8064972 23.3843373 39.2612994 26 40.0381356 26 40.0381356 26 40.0381356 26 40.0381356 26 40.0381356 28.6156627 39.2612994 30.8084337 36.8064972 31.2313253 34.9731638"></polygon>
                        <polygon id="Path" fill="#000000" points="27.1590361 36.3559322 28.0831325 36.6666667 29.273494 36.6666667 30.1506024 35.1285311 28.4590361 33.9322034 26 33.4194915 26 33.4194915 26 33.4194915 26 33.4194915 26 33.4194915 23.5409639 33.9322034 21.8493976 35.1285311 22.726506 36.6666667 23.9168675 36.6666667 24.8409639 36.3559322 24.0421687 37.3813559 21.9590361 37.6610169 23.3843373 39.2612994 26 40.0381356 26 40.0381356 26 40.0381356 26 40.0381356 26 40.0381356 28.6156627 39.2612994 30.0409639 37.6610169 27.9578313 37.3813559"></polygon>
                        <polygon id="Path" fill="#000000" points="34.0819277 42.2754237 31.9204819 42.2754237 26 40.9548023 26 40.9548023 26 40.9548023 26 40.9548023 26 40.9548023 20.0795181 42.2754237 17.9180723 42.2754237 16.2421687 40.0381356 16.2421687 41.6539548 17.573494 43.3785311 20.0795181 44.0776836 23.3843373 42.5550847 26 43.3163842 26 43.3163842 26 43.3163842 26 43.3163842 26 43.3163842 28.6156627 42.5550847 31.9204819 44.0776836 34.426506 43.3785311 35.7578313 41.6539548 35.7578313 40.0381356"></polygon>
                        <polygon id="Path" fill="#918A85" points="31.9204819 44.0776836 28.6156627 42.5550847 26 43.3163842 23.3843373 42.5550847 20.0795181 44.0776836 23.3843373 45.8488701 26 46.3615819 26 46.3615819 26 46.3615819 26 46.3615819 26 46.3615819 28.6156627 45.8488701"></polygon>
                        <polygon id="Path" fill="#5C524A" points="31.9204819 42.2754237 30.0409639 37.6610169 28.6156627 39.2612994 26 40.0381356 23.3843373 39.2612994 21.9590361 37.6610169 20.0795181 42.2754237 26 40.9548023"></polygon>
                        <polygon id="Path" fill="#EBE8DB" points="31.9204819 44.0776836 28.6156627 45.8488701 26 46.3615819 23.3843373 45.8488701 20.0795181 44.0776836 19.3746988 43.8757062 20.4240964 47.5268362 23.9168675 49.1271186 26 49.670904 26 49.670904 26 49.670904 26 49.670904 26 49.670904 28.0831325 49.1271186 31.5759036 47.5268362 32.6253012 43.8757062"></polygon>
                        <polygon id="Path" fill="#A8633A" points="34.3325301 6.89830508 37.9192771 7.08474576 44.2783133 2.09745763 48.053012 0.124293785 50.7 0.807909605 52 2.75 52 7.4420904 50.653012 8.42090395 50.653012 5.60875706 50.0421687 3.01412429 48.4759036 2.65677966 44.4662651 3.85310734 40.7072289 8.0480226 41.0831325 13.1596045 44.7795181 16.3446328 47.2072289 24.1285311 42.6650602 25.8841808 39 21.9689266 37.6686747 22.2485876 38.7024096 19.3432203 37.3710843 17.9449153 36.760241 17.3079096 34.3012048 16.9039548 33.2674699 12.7090395 30.8710843 12.5225989 28.8506024 10.5183616 27.1590361 12.9731638 26 20.6793785 26 8.0480226"></polygon>
                        <polygon id="Path" fill="#CC8E58" points="47.8650602 39.1214689 48.3662651 33.3262712 45.6722892 27.1115819 42.6650602 25.8841808 47.2072289 24.1285311 35.7578313 8.42090395 41.0831325 13.1596045 44.7795181 16.3446328 48.9301205 20.3997175 49.7289157 29.4887006 50.1831325 35.3771186"></polygon>
                        <polygon id="Path" fill="#A8633A" points="37.9192771 7.08474576 34.7084337 6.15254237 31.2313253 5.56214689 26 6.15254237 20.7686747 5.56214689 17.2915663 6.15254237 14.0807229 7.08474576 17.6674699 6.89830508 26 8.0480226 26 8.0480226 26 8.0480226 26 8.0480226 26 8.0480226 34.3325301 6.89830508"></polygon>
                        <polygon id="Path" fill="#A8633A" points="37.3084337 16.5310734 33.2674699 12.7090395 34.3012048 16.9039548 36.760241 17.3079096 37.5746988 18.1624294"></polygon>
                        <polygon id="Path" fill="#EBE8DB" points="34.426506 43.3785311 37.3084337 40.9081921 39.7361446 32.3474576 38.4204819 27.9194915 39 24.1285311 34.426506 30.6850282 31.2313253 29.2556497 27.4253012 29.4887006 27.7385542 31.6483051 30.3855422 32.8912429 31.2313253 34.9731638 30.8084337 36.8064972 30.0409639 37.6610169 31.9204819 42.2754237 34.0819277 42.2754237 35.7578313 40.0381356 35.7578313 41.6539548"></polygon>
                        <polygon id="Path" fill="#A8633A" points="26 20.6793785 33.2674699 12.7090395 30.8710843 12.5225989 28.8506024 10.5183616 29.226506 8.9180791 26 8.0480226 26 8.0480226 26 8.0480226 26 8.0480226 26 8.0480226 22.773494 8.9180791 23.1493976 10.5183616 21.1289157 12.5225989 18.7325301 12.7090395 26 20.6793785 26 20.6793785 26 20.6793785"></polygon>
                        <polygon id="Path" fill="#5D2900" points="41.0831325 13.1596045 40.7072289 8.0480226 37.6686747 9.0579096 35.7578313 8.42090395"></polygon>
                        <polygon id="Path" fill="#5D2900" points="41.5373494 8.68502825 41.0831325 13.1596045 40.7072289 8.0480226 42.8060241 5.76412429"></polygon>
                        <polygon id="Path" fill="#A8633A" points="48.9301205 20.3997175 50.9819277 16.3446328 52 10.1610169 52 7.4420904 50.653012 8.42090395 50.653012 10.2542373 48.5072289 14.0451977 44.7795181 16.3446328"></polygon>
                        <polygon id="Path" fill="#A8633A" points="37.6686747 22.2485876 37.6686747 20.0423729 33.846988 18.3022599 34.3325301 19.7316384 37.0891566 20.6949153"></polygon>
                        <polygon id="Path" fill="#CC8E58" points="30.1192771 22.6059322 31.2313253 14.9463277 26 20.6793785"></polygon>
                        <polygon id="Path" fill="#807664" points="36.086747 51.9548023 29.3204819 48.5522599 28.0831325 49.1271186 26 49.670904 23.9168675 49.1271186 22.6795181 48.5522599 15.913253 51.9548023 17.573494 53.1355932 26 54.8757062 26 54.8757062 26 54.8757062 26 54.8757062 26 54.8757062 34.426506 53.1355932"></polygon>
                        <g transform="translate(3.602410, 23.771186)" fill="#DBD5C3" id="Path">
                            <polygon points="6.95421687 0.807909605 5.73253012 2.11299435 2.7253012 3.34039548 0.0313253012 9.55508475 0.53253012 15.3502825 4.15060241 18.4110169 4.15060241 14.4646893 5.38795181 10.9378531 7.8626506 6.3700565 7.69036145 0"></polygon>
                            <polygon points="42.0698795 3.34039548 39.0626506 2.11299435 37.8409639 0.807909605 37.1048193 0 36.9325301 6.3700565 39.4072289 10.9378531 40.6445783 14.4646893 40.6445783 18.4110169 44.2626506 15.3502825 44.7638554 9.55508475"></polygon>
                        </g>
                        <polygon id="Path" fill="#D6B795" points="39 21.9689266 37.6686747 22.2485876 36.4939759 24.019774 34.2228916 24.6723164 32.4060241 24.1285311 34.426506 30.6850282 38.2481928 25.200565 39 24.1285311 39.7361446 22.7457627"></polygon>
                        <polygon id="Path" fill="#CFC7AF" points="40.7072289 23.7711864 39.7361446 22.7457627 39 24.1285311 38.4204819 27.9194915 39.7361446 32.3474576 38.1698795 37.8940678 41.7566265 42.2754237 43.4481928 42.8502825 46.7686747 40.0381356"></polygon>
                        <polygon id="Path" fill="#DBD5C3" points="41.7566265 42.2754237 38.1698795 37.8940678 37.3084337 40.9081921 34.426506 43.3785311 32.6253012 43.8757062 31.5759036 47.5268362 29.3204819 48.5522599 32.6253012 50.2146893 36.086747 51.9548023 40.5662651 48.8008475 43.4481928 42.8502825"></polygon>
                        <polygon id="Path" fill="#CFC7AF" points="11.2927711 23.7711864 12.2638554 22.7457627 13 24.1285311 13.5795181 27.9194915 12.2638554 32.3474576 13.8301205 37.8940678 10.2433735 42.2754237 8.55180723 42.8502825 5.2313253 40.0381356"></polygon>
                        <g transform="translate(14.253012, 19.731638)" id="Path">
                            <polygon fill="#2C1800" points="5.2939759 4.39689266 5.2939759 2.59463277 3.41445783 0 0.657831325 0.963276836 0.078313253 2.51694915 1.25301205 4.28813559 3.52409639 4.94067797"></polygon>
                            <g transform="translate(1.096386, 0.000000)">
                                <g>
                                    <path d="M1.83253012,3.12288136 C0.971084337,3.12288136 0.25060241,2.53248588 0.0626506024,1.74011299 C0.0469879518,1.81779661 0.0469879518,1.89548023 0.0469879518,1.98870056 C0.0469879518,3.01412429 0.830120482,3.83757062 1.80120482,3.83757062 C2.77228916,3.83757062 3.55542169,3.01412429 3.55542169,1.98870056 C3.55542169,1.97316384 3.55542169,1.95762712 3.55542169,1.9420904 C3.28915663,2.62570621 2.61566265,3.12288136 1.83253012,3.12288136 Z" fill="#4D2F00"></path>
                                    <path d="M1.83253012,3.12288136 C2.61566265,3.12288136 3.28915663,2.62570621 3.55542169,1.9420904 C3.52409639,0.947740113 2.75662651,0.139830508 1.80120482,0.139830508 C0.908433735,0.139830508 0.172289157,0.838983051 0.0626506024,1.74011299 C0.25060241,2.53248588 0.971084337,3.12288136 1.83253012,3.12288136 Z" fill="#2C1800"></path>
                                </g>
                                <path d="M1.06506024,2.03531073 L0.156626506,1.75564972 C0.156626506,1.75564972 0.501204819,0.823446328 1.86385542,1.02542373 C1.86385542,1.04096045 1.1746988,1.63135593 1.06506024,2.03531073 Z" fill="#ECD9CB"></path>
                            </g>
                        </g>
                        <polygon id="Path" fill="#D9AA8B" points="26 20.6793785 26 20.6793785 24.2614458 31.6483051 26 31.6483051 26 31.6483051 27.7385542 31.6483051"></polygon>
                    </g>
                    <g id="Group" transform="translate(44.000000, 43.000000)" fill="#CC8E58">
                        <g transform="translate(0.761905, 1.400000)" id="Path">
                            <path d="M0.171428571,0.3 C0.171428571,0.2 0.171428571,0.12 0.171428571,0.02 L1.02857143,0.02 C1.02857143,0.12 1.02857143,0.2 1.02857143,0.3 L0.742857143,0.3 L0.742857143,1.22 C0.647619048,1.22 0.552380952,1.22 0.457142857,1.22 L0.457142857,0.3 L0.171428571,0.3 Z"></path>
                            <path d="M2.20952381,0.02 L2.3047619,0.02 L2.3047619,1.22 C2.20952381,1.22 2.11428571,1.22 2,1.22 L2,0.68 L1.75238095,0.94 L1.71428571,0.94 L1.46666667,0.68 L1.46666667,1.22 C1.37142857,1.22 1.27619048,1.22 1.16190476,1.22 L1.16190476,0.02 L1.27619048,0.02 L1.71428571,0.54 L2.20952381,0.02 Z"></path>
                        </g>
                        <path d="M2,3.98 C0.971428571,3.98 0.133333333,3.1 0.133333333,2.02 C0.133333333,0.94 0.971428571,0.06 2,0.06 C3.02857143,0.06 3.86666667,0.94 3.86666667,2.02 C3.86666667,3.1 3.02857143,3.98 2,3.98 Z M2,0.28 C1.08571429,0.28 0.361904762,1.06 0.361904762,2 C0.361904762,2.96 1.1047619,3.72 2,3.72 C2.91428571,3.72 3.63809524,2.94 3.63809524,2 C3.63809524,1.06 2.91428571,0.28 2,0.28 Z" id="Shape"></path>
                    </g>
                </g>
            </g>
        </g>
    </g>
</svg>