<?xml version="1.0" encoding="UTF-8"?>
<svg width="55px" height="53px" viewBox="0 0 55 53" version="1.1" xmlns="http://www.w3.org/2000/svg" xmlns:xlink="http://www.w3.org/1999/xlink">
    <title>Group 4</title>
    <g id="Page-1" stroke="none" stroke-width="1" fill="none" fill-rule="evenodd">
        <g id="Group-4" transform="translate(0.961719, -0.003261)" fill-rule="nonzero">
            <g id="Group" transform="translate(12.038281, 11.003261)">
                <polygon id="Path" fill="#CC8E58" points="23.4 0.381920904 22.1783133 0.0587570621 20.4361446 0.991525424 17.5012048 3.34915254 17.5012048 3.34915254 16.0192771 2.90847458 14.4144578 2.62937853 12 2.90847458 9.58554217 2.62937853 7.98072289 2.90847458 6.49879518 3.34915254 6.49879518 3.34915254 3.56385542 0.991525424 1.82168675 0.0587570621 0.6 0.381920904 0 1.3 0 3.5180791 0 4.80338983 0.426506024 6.26497175 0.469879518 7.72655367 1.41686747 9.64350282 1.48192771 11.6632768 1.04819277 13.940113 0.838554217 16.7237288 1.90843373 18.4937853 3.57831325 19.940678 3.94698795 20.2564972 5.27710843 23.0694915 7.34457831 24.560452 7.34457831 24.560452 8.11084337 25.1186441 12 25.9412429 12 25.9412429 12 25.9412429 12 25.9412429 12 25.9412429 15.8891566 25.1186441 16.6554217 24.560452 18.7228916 23.0694915 20.053012 20.2564972 20.4216867 19.940678 22.0915663 18.4937853 23.1614458 16.7237288 22.9518072 13.940113 22.5180723 11.6632768 22.5831325 9.64350282 23.5301205 7.72655367 23.573494 6.26497175 24 4.80338983 24 3.5180791 24 1.3"></polygon>
                <polygon id="Path" fill="#CC8E58" points="16.9662651 8.1819209 15.8313253 7.99096045 15.3542169 6.0079096 12 9.77570621 9.58554217 7.06553672 9.58554217 7.06553672 8.64578313 6.0079096 8.1686747 7.99096045 7.03373494 8.1819209 6.1373494 9.1440678 6.61445783 10.5175141 6.88192771 9.78305085 8.15421687 9.32768362 9.02168675 10.5542373 9.04337349 11.4062147 9.04337349 11.4062147 8.11084337 14.5056497 7.64819277 16.9440678 10.0771084 14.3587571 11.3421687 13.940113 12 9.77570621 12.6578313 13.940113 13.9228916 14.3587571 16.3518072 16.9440678 15.8891566 14.5056497 14.9566265 11.4062147 14.9566265 11.4062147 14.9783133 10.5542373 15.8457831 9.32768362 17.1180723 9.78305085 17.3855422 10.5175141 17.8626506 9.1440678"></polygon>
                <g id="Path">
                    <polygon fill="#2D2113" points="5.21204819 3.80451977 3.47710843 1.82146893 1.62650602 1.2559322 0.903614458 1.42485876 0.621686747 2.65141243 0.621686747 4.84745763 1.61204819 6.63954802 3.33253012 7.72655367 5.03855422 6.22090395"></polygon>
                    <polygon fill="#2C1800" points="12 9.32768362 11.5590361 4.97231638 12 5.04576271"></polygon>
                    <polygon fill="#A8633A" points="8.15421687 3.26101695 6.49879518 3.34915254 3.56385542 0.991525424 1.82168675 0.0587570621 0.6 0.381920904 0 1.3 0 3.5180791 0.621686747 3.98079096 0.621686747 2.65141243 0.903614458 1.42485876 1.62650602 1.2559322 3.47710843 1.82146893 5.21204819 3.80451977 5.03855422 6.22090395 3.33253012 7.72655367 2.21204819 11.4062147 4.30843373 12.2361582 6 10.3853107 6.61445783 10.5175141 6.1373494 9.1440678 6.75180723 8.48305085 7.03373494 8.1819209 8.1686747 7.99096045 8.64578313 6.0079096 9.75180723 5.91977401 10.6843373 4.97231638 11.4650602 6.13276836 12 9.77570621 12 3.80451977"></polygon>
                    <polygon fill="#CC8E58" points="1.90843373 18.4937853 1.67710843 15.7542373 2.92048193 12.8163842 4.30843373 12.2361582 2.21204819 11.4062147 7.49638554 3.98079096 5.03855422 6.22090395 3.33253012 7.72655367 1.41686747 9.64350282 1.04819277 13.940113 0.838554217 16.7237288"></polygon>
                    <polygon fill="#A8633A" points="6.78072289 7.81468927 8.64578313 6.0079096 8.1686747 7.99096045 7.03373494 8.1819209 6.65783133 8.58587571"></polygon>
                    <polygon fill="#EBE8DB" points="8.11084337 20.5062147 6.78072289 19.3384181 5.66024096 15.2915254 6.26746988 13.1983051 6 11.4062147 8.11084337 14.5056497 9.58554217 13.8299435 11.3421687 13.940113 11.1975904 14.9610169 9.97590361 15.5485876 9.58554217 16.5327684 9.78072289 17.399435 10.1349398 17.8033898 9.26746988 19.9847458 8.26987952 19.9847458 7.49638554 18.9271186 7.49638554 19.6909605"></polygon>
                    <polygon fill="#5D2900" points="5.03855422 6.22090395 5.21204819 3.80451977 6.61445783 4.2819209 7.49638554 3.98079096"></polygon>
                    <polygon fill="#5D2900" points="4.82891566 4.10564972 5.03855422 6.22090395 5.21204819 3.80451977 4.24337349 2.72485876"></polygon>
                    <polygon fill="#A8633A" points="1.41686747 9.64350282 0.469879518 7.72655367 0 4.80338983 0 3.5180791 0.621686747 3.98079096 0.621686747 4.84745763 1.61204819 6.63954802 3.33253012 7.72655367"></polygon>
                    <polygon fill="#A8633A" points="6.61445783 10.5175141 6.61445783 9.47457627 8.37831325 8.6519774 8.15421687 9.32768362 6.88192771 9.78305085"></polygon>
                    <polygon fill="#D6B795" points="8.20481928 11.6632768 7.15662651 11.3548023 6.61445783 10.5175141 6 10.3853107 5.66024096 10.7525424 6 11.4062147 6.34698795 11.9129944 8.11084337 14.5056497 9.04337349 11.4062147"></polygon>
                    <polygon fill="#DBD5C3" points="9.42650602 22.4672316 8.94216867 20.7412429 8.11084337 20.5062147 6.78072289 19.3384181 6.38313253 17.9135593 4.72771084 19.9847458 3.94698795 20.2564972 5.27710843 23.0694915 7.34457831 24.560452 8.94216867 23.7378531 10.4674699 22.9519774"></polygon>
                </g>
                <polygon id="Path" fill="#2D2113" points="18.7879518 3.80451977 20.5228916 1.82146893 22.373494 1.2559322 23.0963855 1.42485876 23.3783133 2.65141243 23.3783133 4.84745763 22.3879518 6.63954802 20.6674699 7.72655367 18.9614458 6.22090395"></polygon>
                <g transform="translate(14.963855, 9.327684)" id="Path">
                    <polygon fill="#2C1800" points="0.0144578313 2.07853107 0.0144578313 1.22655367 0.881927711 0 2.15421687 0.455367232 2.42168675 1.18983051 1.87951807 2.02711864 0.831325301 2.33559322"></polygon>
                    <g transform="translate(0.289157, 0.000000)">
                        <g>
                            <path d="M1.06440307,1.47627119 C1.58247536,1.47627119 2.01577218,1.19717514 2.12880613,0.82259887 C2.13822563,0.859322034 2.13822563,0.896045198 2.13822563,0.940112994 C2.13822563,1.42485876 1.66725082,1.81412429 1.08324206,1.81412429 C0.499233297,1.81412429 0.0282584885,1.42485876 0.0282584885,0.940112994 C0.0282584885,0.932768362 0.0282584885,0.925423729 0.0282584885,0.918079096 C0.188389923,1.24124294 0.593428258,1.47627119 1.06440307,1.47627119 Z" fill="#4D2F00"></path>
                            <path d="M1.06440307,1.47627119 C0.593428258,1.47627119 0.188389923,1.24124294 0.0282584885,0.918079096 C0.0470974808,0.448022599 0.508652793,0.0661016949 1.08324206,0.0661016949 C1.62015334,0.0661016949 2.06286966,0.396610169 2.12880613,0.82259887 C2.01577218,1.19717514 1.58247536,1.47627119 1.06440307,1.47627119 Z" fill="#2C1800"></path>
                        </g>
                        <path d="M1.52595838,0.962146893 L2.07228916,0.829943503 C2.07228916,0.829943503 1.86506024,0.389265537 1.04556407,0.484745763 C1.04556407,0.492090395 1.46002191,0.771186441 1.52595838,0.962146893 Z" fill="#ECD9CB"></path>
                    </g>
                </g>
                <polygon id="Path" fill="#2C1800" points="12 9.32768362 12.4409639 4.97231638 12 5.04576271"></polygon>
                <polygon id="Path" fill="#262626" points="14.0240964 15.5485876 12.8024096 14.9610169 12 14.9610169 12 14.9610169 11.1975904 14.9610169 9.97590361 15.5485876 9.58554217 16.5327684 9.78072289 17.399435 10.7927711 18.559887 12 18.9271186 12 18.9271186 12 18.9271186 12 18.9271186 12 18.9271186 13.2072289 18.559887 14.2192771 17.399435 14.4144578 16.5327684"></polygon>
                <polygon id="Path" fill="#000000" points="12.5349398 17.1864407 12.9614458 17.3333333 13.5108434 17.3333333 13.9156627 16.6062147 13.1349398 16.040678 12 15.7983051 12 15.7983051 12 15.7983051 12 15.7983051 12 15.7983051 10.8650602 16.040678 10.0843373 16.6062147 10.4891566 17.3333333 11.0385542 17.3333333 11.4650602 17.1864407 11.0963855 17.6711864 10.1349398 17.8033898 10.7927711 18.559887 12 18.9271186 12 18.9271186 12 18.9271186 12 18.9271186 12 18.9271186 13.2072289 18.559887 13.8650602 17.8033898 12.9036145 17.6711864"></polygon>
                <polygon id="Path" fill="#000000" points="15.7301205 19.9847458 14.7325301 19.9847458 12 19.360452 12 19.360452 12 19.360452 12 19.360452 12 19.360452 9.26746988 19.9847458 8.26987952 19.9847458 7.49638554 18.9271186 7.49638554 19.6909605 8.11084337 20.5062147 9.26746988 20.8367232 10.7927711 20.1169492 12 20.4768362 12 20.4768362 12 20.4768362 12 20.4768362 12 20.4768362 13.2072289 20.1169492 14.7325301 20.8367232 15.8891566 20.5062147 16.5036145 19.6909605 16.5036145 18.9271186"></polygon>
                <polygon id="Path" fill="#918A85" points="14.7325301 20.8367232 13.2072289 20.1169492 12 20.4768362 10.7927711 20.1169492 9.26746988 20.8367232 10.7927711 21.6740113 12 21.9163842 12 21.9163842 12 21.9163842 12 21.9163842 12 21.9163842 13.2072289 21.6740113"></polygon>
                <polygon id="Path" fill="#5C524A" points="14.7325301 19.9847458 13.8650602 17.8033898 13.2072289 18.559887 12 18.9271186 10.7927711 18.559887 10.1349398 17.8033898 9.26746988 19.9847458 12 19.360452"></polygon>
                <polygon id="Path" fill="#EBE8DB" points="14.7325301 20.8367232 13.2072289 21.6740113 12 21.9163842 10.7927711 21.6740113 9.26746988 20.8367232 8.94216867 20.7412429 9.42650602 22.4672316 11.0385542 23.2237288 12 23.480791 12 23.480791 12 23.480791 12 23.480791 12 23.480791 12.9614458 23.2237288 14.573494 22.4672316 15.0578313 20.7412429"></polygon>
                <polygon id="Path" fill="#A8633A" points="15.8457831 3.26101695 17.5012048 3.34915254 20.4361446 0.991525424 22.1783133 0.0587570621 23.4 0.381920904 24 1.3 24 3.5180791 23.3783133 3.98079096 23.3783133 2.65141243 23.0963855 1.42485876 22.373494 1.2559322 20.5228916 1.82146893 18.7879518 3.80451977 18.9614458 6.22090395 20.6674699 7.72655367 21.7879518 11.4062147 19.6915663 12.2361582 18 10.3853107 17.3855422 10.5175141 17.8626506 9.1440678 17.2481928 8.48305085 16.9662651 8.1819209 15.8313253 7.99096045 15.3542169 6.0079096 14.2481928 5.91977401 13.3156627 4.97231638 12.5349398 6.13276836 12 9.77570621 12 3.80451977"></polygon>
                <polygon id="Path" fill="#CC8E58" points="22.0915663 18.4937853 22.3228916 15.7542373 21.0795181 12.8163842 19.6915663 12.2361582 21.7879518 11.4062147 16.5036145 3.98079096 18.9614458 6.22090395 20.6674699 7.72655367 22.5831325 9.64350282 22.9518072 13.940113 23.1614458 16.7237288"></polygon>
                <polygon id="Path" fill="#A8633A" points="17.5012048 3.34915254 16.0192771 2.90847458 14.4144578 2.62937853 12 2.90847458 9.58554217 2.62937853 7.98072289 2.90847458 6.49879518 3.34915254 8.15421687 3.26101695 12 3.80451977 12 3.80451977 12 3.80451977 12 3.80451977 12 3.80451977 15.8457831 3.26101695"></polygon>
                <polygon id="Path" fill="#A8633A" points="17.2192771 7.81468927 15.3542169 6.0079096 15.8313253 7.99096045 16.9662651 8.1819209 17.3421687 8.58587571"></polygon>
                <polygon id="Path" fill="#EBE8DB" points="15.8891566 20.5062147 17.2192771 19.3384181 18.339759 15.2915254 17.7325301 13.1983051 18 11.4062147 15.8891566 14.5056497 14.4144578 13.8299435 12.6578313 13.940113 12.8024096 14.9610169 14.0240964 15.5485876 14.4144578 16.5327684 14.2192771 17.399435 13.8650602 17.8033898 14.7325301 19.9847458 15.7301205 19.9847458 16.5036145 18.9271186 16.5036145 19.6909605"></polygon>
                <polygon id="Path" fill="#A8633A" points="12 9.77570621 15.3542169 6.0079096 14.2481928 5.91977401 13.3156627 4.97231638 13.4891566 4.21581921 12 3.80451977 12 3.80451977 12 3.80451977 12 3.80451977 12 3.80451977 10.5108434 4.21581921 10.6843373 4.97231638 9.75180723 5.91977401 8.64578313 6.0079096 12 9.77570621 12 9.77570621 12 9.77570621"></polygon>
                <polygon id="Path" fill="#5D2900" points="18.9614458 6.22090395 18.7879518 3.80451977 17.3855422 4.2819209 16.5036145 3.98079096"></polygon>
                <polygon id="Path" fill="#5D2900" points="19.1710843 4.10564972 18.9614458 6.22090395 18.7879518 3.80451977 19.7566265 2.72485876"></polygon>
                <polygon id="Path" fill="#A8633A" points="22.5831325 9.64350282 23.5301205 7.72655367 24 4.80338983 24 3.5180791 23.3783133 3.98079096 23.3783133 4.84745763 22.3879518 6.63954802 20.6674699 7.72655367"></polygon>
                <polygon id="Path" fill="#A8633A" points="17.3855422 10.5175141 17.3855422 9.47457627 15.6216867 8.6519774 15.8457831 9.32768362 17.1180723 9.78305085"></polygon>
                <polygon id="Path" fill="#CC8E58" points="13.9012048 10.6864407 14.4144578 7.06553672 12 9.77570621"></polygon>
                <polygon id="Path" fill="#807664" points="16.6554217 24.560452 13.5325301 22.9519774 12.9614458 23.2237288 12 23.480791 11.0385542 23.2237288 10.4674699 22.9519774 7.34457831 24.560452 8.11084337 25.1186441 12 25.9412429 12 25.9412429 12 25.9412429 12 25.9412429 12 25.9412429 15.8891566 25.1186441"></polygon>
                <g transform="translate(1.662651, 11.237288)" fill="#DBD5C3" id="Path">
                    <polygon points="3.20963855 0.381920904 2.64578313 0.998870056 1.25783133 1.57909605 0.0144578313 4.51694915 0.245783133 7.25649718 1.91566265 8.70338983 1.91566265 6.83785311 2.48674699 5.17062147 3.62891566 3.01129944 3.54939759 0"></polygon>
                    <polygon points="19.4168675 1.57909605 18.0289157 0.998870056 17.4650602 0.381920904 17.1253012 0 17.0457831 3.01129944 18.1879518 5.17062147 18.7590361 6.83785311 18.7590361 8.70338983 20.4289157 7.25649718 20.660241 4.51694915"></polygon>
                </g>
                <polygon id="Path" fill="#D6B795" points="18 10.3853107 17.3855422 10.5175141 16.8433735 11.3548023 15.7951807 11.6632768 14.9566265 11.4062147 15.8891566 14.5056497 17.653012 11.9129944 18 11.4062147 18.339759 10.7525424"></polygon>
                <polygon id="Path" fill="#CFC7AF" points="18.7879518 11.2372881 18.339759 10.7525424 18 11.4062147 17.7325301 13.1983051 18.339759 15.2915254 17.6168675 17.9135593 19.2722892 19.9847458 20.053012 20.2564972 21.5855422 18.9271186"></polygon>
                <polygon id="Path" fill="#DBD5C3" points="19.2722892 19.9847458 17.6168675 17.9135593 17.2192771 19.3384181 15.8891566 20.5062147 15.0578313 20.7412429 14.573494 22.4672316 13.5325301 22.9519774 15.0578313 23.7378531 16.6554217 24.560452 18.7228916 23.0694915 20.053012 20.2564972"></polygon>
                <polygon id="Path" fill="#CFC7AF" points="5.21204819 11.2372881 5.66024096 10.7525424 6 11.4062147 6.26746988 13.1983051 5.66024096 15.2915254 6.38313253 17.9135593 4.72771084 19.9847458 3.94698795 20.2564972 2.41445783 18.9271186"></polygon>
                <g transform="translate(6.578313, 9.327684)" id="Path">
                    <polygon fill="#2C1800" points="2.44337349 2.07853107 2.44337349 1.22655367 1.57590361 0 0.303614458 0.455367232 0.0361445783 1.18983051 0.578313253 2.02711864 1.62650602 2.33559322"></polygon>
                    <g transform="translate(0.506024, 0.000000)">
                        <g>
                            <path d="M1.10208105,1.47627119 C0.584008762,1.47627119 0.150711939,1.19717514 0.0376779847,0.82259887 C0.0282584885,0.859322034 0.0282584885,0.896045198 0.0282584885,0.940112994 C0.0282584885,1.42485876 0.499233297,1.81412429 1.08324206,1.81412429 C1.66725082,1.81412429 2.13822563,1.42485876 2.13822563,0.940112994 C2.13822563,0.932768362 2.13822563,0.925423729 2.13822563,0.918079096 C1.97809419,1.24124294 1.57305586,1.47627119 1.10208105,1.47627119 Z" fill="#4D2F00"></path>
                            <path d="M1.10208105,1.47627119 C1.57305586,1.47627119 1.97809419,1.24124294 2.13822563,0.918079096 C2.11938664,0.448022599 1.65783133,0.0661016949 1.08324206,0.0661016949 C0.546330778,0.0661016949 0.103614458,0.396610169 0.0376779847,0.82259887 C0.150711939,1.19717514 0.584008762,1.47627119 1.10208105,1.47627119 Z" fill="#2C1800"></path>
                        </g>
                        <path d="M0.640525739,0.962146893 L0.0941949617,0.829943503 C0.0941949617,0.829943503 0.301423877,0.389265537 1.12092004,0.484745763 C1.12092004,0.492090395 0.706462212,0.771186441 0.640525739,0.962146893 Z" fill="#ECD9CB"></path>
                    </g>
                </g>
                <polygon id="Path" fill="#D9AA8B" points="12 9.77570621 12 9.77570621 11.1975904 14.9610169 12 14.9610169 12 14.9610169 12.8024096 14.9610169"></polygon>
            </g>
            <path d="M52.5485801,43.5391796 L47.0853497,38.0916767 L50.8930557,34.2999497 C51.3706082,33.826248 51.5141453,33.1106608 51.2562297,32.4893893 C50.998314,31.8681178 50.3902152,31.4646608 49.7176334,31.4685728 L44.866947,31.4685728 C49.2293468,20.0599756 43.9920506,7.22321543 32.8946062,2.12402925 C21.7971618,-2.97515693 8.64757091,1.41297688 2.83493859,12.155204 C-2.97769374,22.897431 0.541192028,36.3076398 10.8790319,42.8106382 C11.1424941,42.9739458 11.446504,43.0599994 11.7564598,43.0590046 C12.497157,43.0613942 13.1493068,42.5714147 13.3533013,41.8592501 C13.5572959,41.1470855 13.2634875,40.3860606 12.6338877,39.995819 C3.62199489,34.3402704 0.664532467,22.5879786 5.92582729,13.3394926 C11.1871221,4.09100665 22.7993445,0.629662082 32.2644509,5.48853621 C41.7295574,10.3474103 45.6873091,21.8015382 41.2413487,31.4685728 L33.1623898,31.4685728 C32.248069,31.4685728 31.5068655,32.209889 31.5068655,33.1243488 L31.5068655,41.2045355 C27.491615,43.0861263 22.95779,43.5530003 18.6434412,42.5291563 C17.7519783,42.3188305 16.8588281,42.871111 16.6485343,43.7627094 C16.4382405,44.6543077 16.9904371,45.5475936 17.8819,45.7579194 C22.4135936,46.824438 27.1613904,46.5013311 31.5068655,44.8306849 L31.5068655,49.6821084 C31.5029541,50.3547924 31.9063497,50.9629837 32.5275268,51.2209385 C33.1487039,51.4788934 33.8641824,51.3353344 34.3378121,50.8577094 L38.1289629,47.0494246 L43.575638,52.5134853 C43.8864902,52.8269447 44.3096354,53.0032611 44.7510603,53.0032611 C45.1924853,53.0032611 45.6156305,52.8269447 45.9264826,52.5134853 L52.5485801,45.8903815 C52.8619918,45.579482 53.0382814,45.1562726 53.0382814,44.7147805 C53.0382814,44.2732885 52.8619918,43.850079 52.5485801,43.5391796 Z M44.7510603,49.0032403 L39.3043852,43.5391796 C38.9919566,43.2292407 38.5690062,43.05646 38.1289629,43.0590046 C37.2184245,43.0590046 36.9866511,43.5060641 34.8179142,45.6916884 L34.8179142,34.7801247 L45.7278197,34.7801247 L43.575638,36.9160757 C43.2622263,37.2269752 43.0859367,37.6501846 43.0859367,38.0916767 C43.0859367,38.5331687 43.2622263,38.9563782 43.575638,39.2672776 L49.0388684,44.7147805 L44.7510603,49.0032403 Z" id="Shape" fill="#A8633A"></path>
        </g>
    </g>
</svg>