<?xml version="1.0" encoding="UTF-8"?>
<svg width="58px" height="58px" viewBox="0 0 58 58" version="1.1" xmlns="http://www.w3.org/2000/svg" xmlns:xlink="http://www.w3.org/1999/xlink">
    <title>Group 3</title>
    <g id="Page-1" stroke="none" stroke-width="1" fill="none" fill-rule="evenodd">
        <g id="Group-3" fill-rule="nonzero">
            <g id="grafana_icon-(1)-copy" transform="translate(18.000000, 18.000000)">
                <g id="Group" transform="translate(0.519481, 0.000000)">
                    <polygon id="Path" fill="#CC8E58" points="22.4404762 0.352542373 21.2688851 0.0542372881 19.5981545 0.915254237 16.7835628 3.09152542 16.7835628 3.09152542 15.362402 2.68474576 13.8233888 2.42711864 11.5079365 2.68474576 9.19248422 2.42711864 7.65347103 2.68474576 6.23231019 3.09152542 6.23231019 3.09152542 3.41771849 0.915254237 1.74698795 0.0542372881 0.575396825 0.352542373 0 1.2 0 3.24745763 0 4.43389831 0.40901702 5.78305085 0.450611972 7.13220339 1.35876841 8.90169492 1.42116083 10.7661017 1.00521132 12.8677966 0.804169057 15.4372881 1.83017785 17.0711864 3.43158348 18.4067797 3.78514056 18.6983051 5.06071907 21.2949153 7.04341174 22.6711864 7.04341174 22.6711864 7.77825588 23.1864407 11.5079365 23.9457627 11.5079365 23.9457627 11.5079365 23.9457627 11.5079365 23.9457627 11.5079365 23.9457627 15.2376171 23.1864407 15.9724613 22.6711864 17.9551539 21.2949153 19.2307325 18.6983051 19.5842895 18.4067797 21.1856952 17.0711864 22.211704 15.4372881 22.0106617 12.8677966 21.5947122 10.7661017 21.6571046 8.90169492 22.565261 7.13220339 22.606856 5.78305085 23.015873 4.43389831 23.015873 3.24745763 23.015873 1.2"></polygon>
                    <polygon id="Path" fill="#CC8E58" points="16.2705584 7.55254237 15.1821572 7.37627119 14.7246127 5.54576271 11.5079365 9.02372881 9.19248422 6.5220339 9.19248422 6.5220339 8.29126028 5.54576271 7.83371582 7.37627119 6.74531459 7.55254237 5.8856856 8.44067797 6.34323006 9.70847458 6.59973226 9.03050847 7.81985083 8.61016949 8.65174986 9.74237288 8.67254733 10.5288136 8.67254733 10.5288136 7.77825588 13.3898305 7.3345764 15.640678 9.66389367 13.2542373 10.8770797 12.8677966 11.5079365 9.02372881 12.1387933 12.8677966 13.3519793 13.2542373 15.6812966 15.640678 15.2376171 13.3898305 14.3433257 10.5288136 14.3433257 10.5288136 14.3641232 9.74237288 15.1960222 8.61016949 16.4161408 9.03050847 16.672643 9.70847458 17.1301874 8.44067797"></polygon>
                    <g id="Path">
                        <polygon fill="#2D2113" points="4.99832664 3.51186441 3.33452859 1.68135593 1.55981067 1.15932203 0.866561484 1.31525424 0.596194301 2.44745763 0.596194301 4.47457627 1.54594569 6.12881356 3.19587875 7.13220339 4.83194683 5.74237288"></polygon>
                        <polygon fill="#2C1800" points="11.5079365 8.61016949 11.0850545 4.58983051 11.5079365 4.65762712"></polygon>
                        <polygon fill="#A8633A" points="7.81985083 3.01016949 6.23231019 3.09152542 3.41771849 0.915254237 1.74698795 0.0542372881 0.575396825 0.352542373 0 1.2 0 3.24745763 0.596194301 3.67457627 0.596194301 2.44745763 0.866561484 1.31525424 1.55981067 1.15932203 3.33452859 1.68135593 4.99832664 3.51186441 4.83194683 5.74237288 3.19587875 7.13220339 2.12134251 10.5288136 4.13176516 11.2949153 5.75396825 9.58644068 6.34323006 9.70847458 5.8856856 8.44067797 6.47494741 7.83050847 6.74531459 7.55254237 7.83371582 7.37627119 8.29126028 5.54576271 9.35193154 5.46440678 10.246223 4.58983051 10.9949321 5.66101695 11.5079365 9.02372881 11.5079365 3.51186441"></polygon>
                        <polygon fill="#CC8E58" points="1.83017785 17.0711864 1.60833811 14.5423729 2.80072672 11.8305085 4.13176516 11.2949153 2.12134251 10.5288136 7.18899407 3.67457627 4.83194683 5.74237288 3.19587875 7.13220339 1.35876841 8.90169492 1.00521132 12.8677966 0.804169057 15.4372881"></polygon>
                        <polygon fill="#A8633A" points="6.50267738 7.21355932 8.29126028 5.54576271 7.83371582 7.37627119 6.74531459 7.55254237 6.38482501 7.92542373"></polygon>
                        <polygon fill="#EBE8DB" points="7.77825588 18.9288136 6.50267738 17.8508475 5.42814114 14.1152542 6.01047045 12.1830508 5.75396825 10.5288136 7.77825588 13.3898305 9.19248422 12.7661017 10.8770797 12.8677966 10.7384299 13.8101695 9.56683878 14.3525424 9.19248422 15.2610169 9.3796615 16.0610169 9.7193536 16.4338983 8.88745458 18.4474576 7.9307707 18.4474576 7.18899407 17.4711864 7.18899407 18.1762712"></polygon>
                        <polygon fill="#5D2900" points="4.83194683 5.74237288 4.99832664 3.51186441 6.34323006 3.95254237 7.18899407 3.67457627"></polygon>
                        <polygon fill="#5D2900" points="4.63090457 3.78983051 4.83194683 5.74237288 4.99832664 3.51186441 4.06937273 2.51525424"></polygon>
                        <polygon fill="#A8633A" points="1.35876841 8.90169492 0.450611972 7.13220339 0 4.43389831 0 3.24745763 0.596194301 3.67457627 0.596194301 4.47457627 1.54594569 6.12881356 3.19587875 7.13220339"></polygon>
                        <polygon fill="#A8633A" points="6.34323006 9.70847458 6.34323006 8.74576271 8.03475808 7.98644068 7.81985083 8.61016949 6.59973226 9.03050847"></polygon>
                        <polygon fill="#D6B795" points="7.86837828 10.7661017 6.86316695 10.4813559 6.34323006 9.70847458 5.75396825 9.58644068 5.42814114 9.92542373 5.75396825 10.5288136 6.08672786 10.9966102 7.77825588 13.3898305 8.67254733 10.5288136"></polygon>
                        <polygon fill="#DBD5C3" points="9.0399694 20.7389831 8.57549245 19.1457627 7.77825588 18.9288136 6.50267738 17.8508475 6.12139032 16.5355932 4.53384968 18.4474576 3.78514056 18.6983051 5.06071907 21.2949153 7.04341174 22.6711864 8.57549245 21.9118644 10.0382482 21.1864407"></polygon>
                    </g>
                    <polygon id="Path" fill="#2D2113" points="18.0175464 3.51186441 19.6813444 1.68135593 21.4560623 1.15932203 22.1493115 1.31525424 22.4196787 2.44745763 22.4196787 4.47457627 21.4699273 6.12881356 19.8199943 7.13220339 18.1839262 5.74237288"></polygon>
                    <g transform="translate(14.350258, 8.610169)" id="Path">
                        <polygon fill="#2C1800" points="0.0138649837 1.91864407 0.0138649837 1.13220339 0.845764008 0 2.06588258 0.420338983 2.32238478 1.09830508 1.80244789 1.87118644 0.797236565 2.1559322"></polygon>
                        <g transform="translate(0.277300, 0.000000)">
                            <g>
                                <path d="M0.783371582,1.36271186 C1.16465863,1.36271186 1.48355326,1.10508475 1.56674316,0.759322034 C1.57367566,0.793220339 1.57367566,0.827118644 1.57367566,0.86779661 C1.57367566,1.31525424 1.22705106,1.67457627 0.797236565,1.67457627 C0.367422069,1.67457627 0.0207974756,1.31525424 0.0207974756,0.86779661 C0.0207974756,0.861016949 0.0207974756,0.854237288 0.0207974756,0.847457627 C0.138649837,1.14576271 0.436746988,1.36271186 0.783371582,1.36271186 Z" fill="#4D2F00"></path>
                                <path d="M0.783371582,1.36271186 C0.436746988,1.36271186 0.138649837,1.14576271 0.0207974756,0.847457627 C0.0346624594,0.413559322 0.374354561,0.0610169492 0.797236565,0.0610169492 C1.1923886,0.0610169492 1.51821572,0.366101695 1.56674316,0.759322034 C1.48355326,1.10508475 1.16465863,1.36271186 0.783371582,1.36271186 Z" fill="#2C1800"></path>
                            </g>
                            <path d="M1.12306368,0.888135593 L1.52514821,0.766101695 C1.52514821,0.766101695 1.37263339,0.359322034 0.769506598,0.447457627 C0.769506598,0.454237288 1.07453624,0.711864407 1.12306368,0.888135593 Z" fill="#ECD9CB"></path>
                        </g>
                    </g>
                    <polygon id="Path" fill="#2C1800" points="11.5079365 8.61016949 11.9308185 4.58983051 11.5079365 4.65762712"></polygon>
                    <polygon id="Path" fill="#262626" points="13.4490342 14.3525424 12.2774431 13.8101695 11.5079365 13.8101695 11.5079365 13.8101695 10.7384299 13.8101695 9.56683878 14.3525424 9.19248422 15.2610169 9.3796615 16.0610169 10.3502104 17.1322034 11.5079365 17.4711864 11.5079365 17.4711864 11.5079365 17.4711864 11.5079365 17.4711864 11.5079365 17.4711864 12.6656627 17.1322034 13.6362115 16.0610169 13.8233888 15.2610169"></polygon>
                    <polygon id="Path" fill="#000000" points="12.0209409 15.8644068 12.4299579 16 12.9568273 16 13.3450469 15.3288136 12.5963377 14.8067797 11.5079365 14.5830508 11.5079365 14.5830508 11.5079365 14.5830508 11.5079365 14.5830508 11.5079365 14.5830508 10.4195353 14.8067797 9.67082616 15.3288136 10.0590457 16 10.5859151 16 10.9949321 15.8644068 10.641375 16.3118644 9.7193536 16.4338983 10.3502104 17.1322034 11.5079365 17.4711864 11.5079365 17.4711864 11.5079365 17.4711864 11.5079365 17.4711864 11.5079365 17.4711864 12.6656627 17.1322034 13.2965194 16.4338983 12.374498 16.3118644"></polygon>
                    <polygon id="Path" fill="#000000" points="15.0851023 18.4474576 14.1284184 18.4474576 11.5079365 17.8711864 11.5079365 17.8711864 11.5079365 17.8711864 11.5079365 17.8711864 11.5079365 17.8711864 8.88745458 18.4474576 7.9307707 18.4474576 7.18899407 17.4711864 7.18899407 18.1762712 7.77825588 18.9288136 8.88745458 19.2338983 10.3502104 18.5694915 11.5079365 18.9016949 11.5079365 18.9016949 11.5079365 18.9016949 11.5079365 18.9016949 11.5079365 18.9016949 12.6656627 18.5694915 14.1284184 19.2338983 15.2376171 18.9288136 15.8268789 18.1762712 15.8268789 17.4711864"></polygon>
                    <polygon id="Path" fill="#918A85" points="14.1284184 19.2338983 12.6656627 18.5694915 11.5079365 18.9016949 10.3502104 18.5694915 8.88745458 19.2338983 10.3502104 20.0067797 11.5079365 20.2305085 11.5079365 20.2305085 11.5079365 20.2305085 11.5079365 20.2305085 11.5079365 20.2305085 12.6656627 20.0067797"></polygon>
                    <polygon id="Path" fill="#5C524A" points="14.1284184 18.4474576 13.2965194 16.4338983 12.6656627 17.1322034 11.5079365 17.4711864 10.3502104 17.1322034 9.7193536 16.4338983 8.88745458 18.4474576 11.5079365 17.8711864"></polygon>
                    <polygon id="Path" fill="#EBE8DB" points="14.1284184 19.2338983 12.6656627 20.0067797 11.5079365 20.2305085 10.3502104 20.0067797 8.88745458 19.2338983 8.57549245 19.1457627 9.0399694 20.7389831 10.5859151 21.4372881 11.5079365 21.6745763 11.5079365 21.6745763 11.5079365 21.6745763 11.5079365 21.6745763 11.5079365 21.6745763 12.4299579 21.4372881 13.9759036 20.7389831 14.4403806 19.1457627"></polygon>
                    <polygon id="Path" fill="#A8633A" points="15.1960222 3.01016949 16.7835628 3.09152542 19.5981545 0.915254237 21.2688851 0.0542372881 22.4404762 0.352542373 23.015873 1.2 23.015873 3.24745763 22.4196787 3.67457627 22.4196787 2.44745763 22.1493115 1.31525424 21.4560623 1.15932203 19.6813444 1.68135593 18.0175464 3.51186441 18.1839262 5.74237288 19.8199943 7.13220339 20.8945305 10.5288136 18.8841079 11.2949153 17.2619048 9.58644068 16.672643 9.70847458 17.1301874 8.44067797 16.5409256 7.83050847 16.2705584 7.55254237 15.1821572 7.37627119 14.7246127 5.54576271 13.6639415 5.46440678 12.76965 4.58983051 12.0209409 5.66101695 11.5079365 9.02372881 11.5079365 3.51186441"></polygon>
                    <polygon id="Path" fill="#CC8E58" points="21.1856952 17.0711864 21.4075349 14.5423729 20.2151463 11.8305085 18.8841079 11.2949153 20.8945305 10.5288136 15.8268789 3.67457627 18.1839262 5.74237288 19.8199943 7.13220339 21.6571046 8.90169492 22.0106617 12.8677966 22.211704 15.4372881"></polygon>
                    <polygon id="Path" fill="#A8633A" points="16.7835628 3.09152542 15.362402 2.68474576 13.8233888 2.42711864 11.5079365 2.68474576 9.19248422 2.42711864 7.65347103 2.68474576 6.23231019 3.09152542 7.81985083 3.01016949 11.5079365 3.51186441 11.5079365 3.51186441 11.5079365 3.51186441 11.5079365 3.51186441 11.5079365 3.51186441 15.1960222 3.01016949"></polygon>
                    <polygon id="Path" fill="#A8633A" points="16.5131956 7.21355932 14.7246127 5.54576271 15.1821572 7.37627119 16.2705584 7.55254237 16.631048 7.92542373"></polygon>
                    <polygon id="Path" fill="#EBE8DB" points="15.2376171 18.9288136 16.5131956 17.8508475 17.5877319 14.1152542 17.0054026 12.1830508 17.2619048 10.5288136 15.2376171 13.3898305 13.8233888 12.7661017 12.1387933 12.8677966 12.2774431 13.8101695 13.4490342 14.3525424 13.8233888 15.2610169 13.6362115 16.0610169 13.2965194 16.4338983 14.1284184 18.4474576 15.0851023 18.4474576 15.8268789 17.4711864 15.8268789 18.1762712"></polygon>
                    <polygon id="Path" fill="#A8633A" points="11.5079365 9.02372881 14.7246127 5.54576271 13.6639415 5.46440678 12.76965 4.58983051 12.9360298 3.89152542 11.5079365 3.51186441 11.5079365 3.51186441 11.5079365 3.51186441 11.5079365 3.51186441 11.5079365 3.51186441 10.0798432 3.89152542 10.246223 4.58983051 9.35193154 5.46440678 8.29126028 5.54576271 11.5079365 9.02372881 11.5079365 9.02372881 11.5079365 9.02372881"></polygon>
                    <polygon id="Path" fill="#5D2900" points="18.1839262 5.74237288 18.0175464 3.51186441 16.672643 3.95254237 15.8268789 3.67457627"></polygon>
                    <polygon id="Path" fill="#5D2900" points="18.3849684 3.78983051 18.1839262 5.74237288 18.0175464 3.51186441 18.9465003 2.51525424"></polygon>
                    <polygon id="Path" fill="#A8633A" points="21.6571046 8.90169492 22.565261 7.13220339 23.015873 4.43389831 23.015873 3.24745763 22.4196787 3.67457627 22.4196787 4.47457627 21.4699273 6.12881356 19.8199943 7.13220339"></polygon>
                    <polygon id="Path" fill="#A8633A" points="16.672643 9.70847458 16.672643 8.74576271 14.9811149 7.98644068 15.1960222 8.61016949 16.4161408 9.03050847"></polygon>
                    <polygon id="Path" fill="#CC8E58" points="13.3311819 9.86440678 13.8233888 6.5220339 11.5079365 9.02372881"></polygon>
                    <polygon id="Path" fill="#807664" points="15.9724613 22.6711864 12.9776248 21.1864407 12.4299579 21.4372881 11.5079365 21.6745763 10.5859151 21.4372881 10.0382482 21.1864407 7.04341174 22.6711864 7.77825588 23.1864407 11.5079365 23.9457627 11.5079365 23.9457627 11.5079365 23.9457627 11.5079365 23.9457627 11.5079365 23.9457627 15.2376171 23.1864407"></polygon>
                    <g transform="translate(1.594473, 10.372881)" fill="#DBD5C3" id="Path">
                        <polygon points="3.07802639 0.352542373 2.53729203 0.922033898 1.20625359 1.45762712 0.0138649837 4.16949153 0.235704724 6.69830508 1.83711035 8.03389831 1.83711035 6.31186441 2.3847772 4.77288136 3.48011092 2.77966102 3.40385351 0"></polygon>
                        <polygon points="18.6206732 1.45762712 17.2896347 0.922033898 16.7489004 0.352542373 16.4230732 0 16.3468158 2.77966102 17.4421496 4.77288136 17.9898164 6.31186441 17.9898164 8.03389831 19.591222 6.69830508 19.8130618 4.16949153"></polygon>
                    </g>
                    <polygon id="Path" fill="#D6B795" points="17.2619048 9.58644068 16.672643 9.70847458 16.1527061 10.4813559 15.1474947 10.7661017 14.3433257 10.5288136 15.2376171 13.3898305 16.9291452 10.9966102 17.2619048 10.5288136 17.5877319 9.92542373"></polygon>
                    <polygon id="Path" fill="#CFC7AF" points="18.0175464 10.3728814 17.5877319 9.92542373 17.2619048 10.5288136 17.0054026 12.1830508 17.5877319 14.1152542 16.8944827 16.5355932 18.4820233 18.4474576 19.2307325 18.6983051 20.7004207 17.4711864"></polygon>
                    <polygon id="Path" fill="#DBD5C3" points="18.4820233 18.4474576 16.8944827 16.5355932 16.5131956 17.8508475 15.2376171 18.9288136 14.4403806 19.1457627 13.9759036 20.7389831 12.9776248 21.1864407 14.4403806 21.9118644 15.9724613 22.6711864 17.9551539 21.2949153 19.2307325 18.6983051"></polygon>
                    <polygon id="Path" fill="#CFC7AF" points="4.99832664 10.3728814 5.42814114 9.92542373 5.75396825 10.5288136 6.01047045 12.1830508 5.42814114 14.1152542 6.12139032 16.5355932 4.53384968 18.4474576 3.78514056 18.6983051 2.31545229 17.4711864"></polygon>
                    <g transform="translate(6.308568, 8.610169)" id="Path">
                        <polygon fill="#2C1800" points="2.34318225 1.91864407 2.34318225 1.13220339 1.51128323 0 0.291164659 0.420338983 0.0346624594 1.09830508 0.55459935 1.87118644 1.55981067 2.1559322"></polygon>
                        <g transform="translate(0.485274, 0.000000)">
                            <g>
                                <path d="M0.811101549,1.36271186 C0.429814496,1.36271186 0.11091987,1.10508475 0.0277299675,0.759322034 C0.0207974756,0.793220339 0.0207974756,0.827118644 0.0207974756,0.86779661 C0.0207974756,1.31525424 0.367422069,1.67457627 0.797236565,1.67457627 C1.22705106,1.67457627 1.57367566,1.31525424 1.57367566,0.86779661 C1.57367566,0.861016949 1.57367566,0.854237288 1.57367566,0.847457627 C1.45582329,1.14576271 1.15772614,1.36271186 0.811101549,1.36271186 Z" fill="#4D2F00"></path>
                                <path d="M0.811101549,1.36271186 C1.15772614,1.36271186 1.45582329,1.14576271 1.57367566,0.847457627 C1.55981067,0.413559322 1.22011857,0.0610169492 0.797236565,0.0610169492 C0.402084529,0.0610169492 0.0762574106,0.366101695 0.0277299675,0.759322034 C0.11091987,1.10508475 0.429814496,1.36271186 0.811101549,1.36271186 Z" fill="#2C1800"></path>
                            </g>
                            <path d="M0.471409447,0.888135593 L0.0693249187,0.766101695 C0.0693249187,0.766101695 0.22183974,0.359322034 0.824966533,0.447457627 C0.824966533,0.454237288 0.51993689,0.711864407 0.471409447,0.888135593 Z" fill="#ECD9CB"></path>
                        </g>
                    </g>
                    <polygon id="Path" fill="#D9AA8B" points="11.5079365 9.02372881 11.5079365 9.02372881 10.7384299 13.8101695 11.5079365 13.8101695 11.5079365 13.8101695 12.2774431 13.8101695"></polygon>
                </g>
            </g>
            <path d="M30.8125,58 L27.1875,58 C24.1844517,58 21.75,55.5655483 21.75,52.5625 C21.7258658,51.835186 21.269077,51.1928268 20.59,50.93125 C20.155,50.8104167 19.75625,50.6654167 19.39375,50.49625 C18.7259029,50.2030847 17.9473938,50.3387881 17.418125,50.840625 C15.3060168,52.9012729 11.9358582,52.9012729 9.82375,50.840625 L7.25,48.17625 C5.18935206,46.0641418 5.18935206,42.6939832 7.25,40.581875 C7.74566013,40.0486228 7.87414943,39.2705487 7.57625,38.60625 C7.35875,38.24375 7.17145833,37.845 7.014375,37.41 C6.76070748,36.7483241 6.14469329,36.2951643 5.4375,36.25 C2.43445167,36.25 0,33.8155483 0,30.8125 L0,27.1875 C0,24.1844517 2.43445167,21.75 5.4375,21.75 C6.16481395,21.7258658 6.80717317,21.269077 7.06875,20.59 C7.18958333,20.155 7.33458333,19.75625 7.50375,19.39375 C7.82102812,18.7435826 7.72128473,17.9670091 7.25,17.418125 C5.18935206,15.3060168 5.18935206,11.9358582 7.25,9.82375 L9.82375,7.25 C11.9358582,5.18935206 15.3060168,5.18935206 17.418125,7.25 C17.9513772,7.74566013 18.7294513,7.87414943 19.39375,7.57625 L20.59,7.086875 C21.2750327,6.82276439 21.7330735,6.17148749 21.75,5.4375 C21.75,2.43445167 24.1844517,0 27.1875,0 L30.8125,0 C33.8155483,0 36.25,2.43445167 36.25,5.4375 C36.2741342,6.16481395 36.730923,6.80717317 37.41,7.06875 L38.60625,7.558125 C39.2670075,7.86080307 40.0446707,7.73951616 40.581875,7.25 C42.6939832,5.18935206 46.0641418,5.18935206 48.17625,7.25 L50.75,9.82375 C52.8106479,11.9358582 52.8106479,15.3060168 50.75,17.418125 C50.2543399,17.9513772 50.1258506,18.7294513 50.42375,19.39375 C50.605,19.7925 50.768125,20.19125 50.913125,20.59 C51.1772356,21.2750327 51.8285125,21.7330735 52.5625,21.75 C55.5655483,21.75 58,24.1844517 58,27.1875 L58,30.8125 C58,33.8155483 55.5655483,36.25 52.5625,36.25 C51.835186,36.2741342 51.1928268,36.730923 50.93125,37.41 C50.78625,37.80875 50.623125,38.2075 50.441875,38.60625 C50.1487097,39.2740971 50.2844131,40.0526062 50.78625,40.581875 C52.8468979,42.6939832 52.8468979,46.0641418 50.78625,48.17625 L48.17625,50.75 C47.4693071,51.452749 46.3275679,51.452749 45.620625,50.75 C44.917876,50.0430571 44.917876,48.9013179 45.620625,48.194375 L48.266875,45.548125 C48.9228959,44.8504031 48.9228959,43.7627219 48.266875,43.065 C46.7118128,41.4756701 46.2811171,39.0996655 47.179375,37.065625 C47.3425,36.72125 47.469375,36.376875 47.59625,36.0325 C48.4139823,33.9998578 50.371764,32.6565623 52.5625,32.625 C53.5635161,32.625 54.375,31.8135161 54.375,30.8125 L54.375,27.1875 C54.375,26.1864839 53.5635161,25.375 52.5625,25.375 C50.3339264,25.3535225 48.3440953,23.9742893 47.541875,21.895 C47.4217255,21.5492437 47.2825548,21.2103934 47.125,20.88 C46.2184439,18.8410366 46.6496228,16.4551803 48.2125,14.8625 C48.8685209,14.1647781 48.8685209,13.0770969 48.2125,12.379375 L45.620625,9.733125 C44.9229031,9.07710408 43.8352219,9.07710408 43.1375,9.733125 C41.5448197,11.2960022 39.1589634,11.7271811 37.12,10.820625 C36.7896066,10.6630702 36.4507563,10.5238995 36.105,10.40375 C34.0438939,9.60891945 32.6685046,7.64612429 32.625,5.4375 C32.625,4.43648389 31.8135161,3.625 30.8125,3.625 L27.1875,3.625 C26.1864839,3.625 25.375,4.43648389 25.375,5.4375 C25.3535225,7.66607357 23.9742893,9.65590475 21.895,10.458125 C21.5492437,10.5782745 21.2103934,10.7174452 20.88,10.875 C18.8410366,11.7815561 16.4551803,11.3503772 14.8625,9.7875 C14.1647781,9.13147908 13.0770969,9.13147908 12.379375,9.7875 L9.733125,12.379375 C9.07710408,13.0770969 9.07710408,14.1647781 9.733125,14.8625 C11.3068809,16.4395113 11.7593936,18.8169984 10.875,20.861875 C10.711875,21.20625 10.585,21.550625 10.458125,21.895 C9.65590475,23.9742893 7.66607357,25.3535225 5.4375,25.375 C4.43648389,25.375 3.625,26.1864839 3.625,27.1875 L3.625,30.8125 C3.625,31.8135161 4.43648389,32.625 5.4375,32.625 C7.66607357,32.6464775 9.65590475,34.0257107 10.458125,36.105 C10.5782745,36.4507563 10.7174452,36.7896066 10.875,37.12 C11.7815561,39.1589634 11.3503772,41.5448197 9.7875,43.1375 C9.13147908,43.8352219 9.13147908,44.9229031 9.7875,45.620625 L12.43375,48.266875 C13.1314719,48.9228959 14.2191531,48.9228959 14.916875,48.266875 C16.5062049,46.7118128 18.8822095,46.2811171 20.91625,47.179375 C21.260625,47.3425 21.605,47.469375 21.949375,47.59625 C23.9891299,48.4082958 25.3404264,50.3673182 25.375,52.5625 C25.375,53.5635161 26.1864839,54.375 27.1875,54.375 L30.8125,54.375 C31.8135161,54.375 32.625,53.5635161 32.625,52.5625 C32.6464775,50.3339264 34.0257107,48.3440953 36.105,47.541875 C36.4507563,47.4217255 36.7896066,47.2825548 37.12,47.125 C38.0359297,46.7145834 39.1111458,47.1243828 39.5215624,48.0403125 C39.931979,48.9562422 39.5221797,50.0314584 38.60625,50.441875 C38.2075,50.623125 37.80875,50.78625 37.41,50.93125 C36.730923,51.1928268 36.2741342,51.835186 36.25,52.5625 C36.25,55.5655483 33.8155483,58 30.8125,58 Z" id="Path" fill="#A8633A"></path>
        </g>
    </g>
</svg>