<?xml version="1.0" encoding="UTF-8"?>
<svg width="57px" height="57px" viewBox="0 0 57 57" version="1.1" xmlns="http://www.w3.org/2000/svg" xmlns:xlink="http://www.w3.org/1999/xlink">
    <title>Group 2</title>
    <g id="Page-1" stroke="none" stroke-width="1" fill="none" fill-rule="evenodd">
        <g id="Group-2" transform="translate(-0.003386, -0.000207)" fill-rule="nonzero">
            <path d="M3.03905076,37.9989429 C2.12892596,38.0302562 1.31437971,37.4769383 1.06909999,36.6607633 C0.331507836,34.1091635 -0.02642025,31.4754651 0.00532657787,28.8333296 C0.00532657787,27.8209239 0.887303579,27.000207 1.97527735,27.000207 C3.06325111,27.000207 3.94522811,27.8209239 3.94522811,28.8333296 C3.94492477,31.1431554 4.27617889,33.4426706 4.9302035,35.6708771 C5.09638112,36.2223207 4.97604416,36.814347 4.60491312,37.2712204 C4.23378207,37.7280939 3.6545116,37.9973054 3.03905076,37.9989429 Z" id="Path" fill="#A8633A"></path>
            <path d="M28.7367194,0.000206982799 C20.6069483,-0.0227975379 12.8693049,3.60447834 7.53671942,9.93851688 L7.53671942,9.11793155 C7.53671942,8.11082763 6.74575581,7.29440859 5.77005276,7.29440859 C4.7943497,7.29440859 4.00338609,8.11082763 4.00338609,9.11793155 L4.00338609,14.5885004 C4.00338609,15.5956043 4.7943497,16.4120234 5.77005276,16.4120234 L11.0700528,16.4120234 C12.0457558,16.4120234 12.8367194,15.5956043 12.8367194,14.5885004 C12.8367194,13.5813965 12.0457558,12.7649775 11.0700528,12.7649775 L9.85105276,12.7649775 C14.5109461,6.96677848 21.4381323,3.62247424 28.7367194,3.64736269 C42.3965622,3.64736269 53.4700528,15.0772292 53.4700528,29.176684 C53.4700528,30.1837879 54.2610164,31.000207 55.2367194,31.000207 C56.2124225,31.000207 57.0033861,30.1837879 57.0033861,29.176684 C57.0033861,13.0630213 44.3479684,0.000206982799 28.7367194,0.000206982799 Z" id="Path" fill="#A8633A"></path>
            <path d="M52.2179022,40.902062 L46.8614506,40.902062 C45.8753551,40.902062 45.0759668,41.7038162 45.0759668,42.6928302 C45.0759668,43.6818443 45.8753551,44.4835985 46.8614506,44.4835985 L48.0934345,44.4835985 C42.8491972,50.7272639 34.9023042,54.0189396 26.7936295,53.3061724 C18.6849548,52.5934052 11.4301075,47.965469 7.34869269,40.902062 C6.85564492,40.0416198 5.7604829,39.7449708 4.90257982,40.2394778 C4.04467674,40.7339847 3.74890304,41.8323881 4.24195077,42.6928302 C8.84911096,50.6821562 17.0113228,55.9564549 26.1690668,56.8618032 C35.3268107,57.7671516 44.3586695,54.1926846 50.4324184,47.2592893 L50.4324184,48.0651351 C50.4324184,49.0541491 51.2318067,49.8559033 52.2179022,49.8559033 C53.2039977,49.8559033 54.0033861,49.0541491 54.0033861,48.0651351 L54.0033861,42.6928302 C54.0033861,41.7038162 53.2039977,40.902062 52.2179022,40.902062 Z" id="Path" fill="#A8633A"></path>
            <path d="M29.0033861,47.000207 C19.0622606,47.000207 11.0033861,38.9413325 11.0033861,29.000207 C11.0033861,19.0590815 19.0622606,11.000207 29.0033861,11.000207 C38.9445116,11.000207 47.0033861,19.0590815 47.0033861,29.000207 C47.0033861,33.7741038 45.106963,38.3524742 41.7313082,41.728129 C38.3556533,45.1037839 33.7772829,47.000207 29.0033861,47.000207 Z M29.0033861,14.600207 C21.0504857,14.600207 14.6033861,21.0473066 14.6033861,29.000207 C14.6033861,36.9531074 21.0504857,43.400207 29.0033861,43.400207 C36.9562865,43.400207 43.4033861,36.9531074 43.4033861,29.000207 C43.4033861,25.1810895 41.8862476,21.5183932 39.1857237,18.8178693 C36.4851999,16.1173455 32.8225035,14.600207 29.0033861,14.600207 Z" id="Shape" fill="#A8633A"></path>
            <g id="Group" transform="translate(20.003386, 19.000207)">
                <polygon id="Path" fill="#CC8E58" points="16.575 0.26440678 15.7096386 0.0406779661 14.4756024 0.686440678 12.3966867 2.31864407 12.3966867 2.31864407 11.346988 2.01355932 10.210241 1.82033898 8.5 2.01355932 6.78975904 1.82033898 5.65301205 2.01355932 4.60331325 2.31864407 4.60331325 2.31864407 2.52439759 0.686440678 1.29036145 0.0406779661 0.425 0.26440678 0 0.9 0 2.43559322 0 3.32542373 0.302108434 4.33728814 0.332831325 5.34915254 1.00361446 6.67627119 1.0496988 8.07457627 0.74246988 9.65084746 0.593975904 11.5779661 1.35180723 12.8033898 2.53463855 13.8050847 2.79578313 14.0237288 3.73795181 15.9711864 5.20240964 17.0033898 5.20240964 17.0033898 5.74518072 17.3898305 8.5 17.959322 8.5 17.959322 8.5 17.959322 8.5 17.959322 8.5 17.959322 11.2548193 17.3898305 11.7975904 17.0033898 13.2620482 15.9711864 14.2042169 14.0237288 14.4653614 13.8050847 15.6481928 12.8033898 16.4060241 11.5779661 16.2575301 9.65084746 15.9503012 8.07457627 15.9963855 6.67627119 16.6671687 5.34915254 16.6978916 4.33728814 17 3.32542373 17 2.43559322 17 0.9"></polygon>
                <polygon id="Path" fill="#CC8E58" points="12.0177711 5.66440678 11.2138554 5.53220339 10.8759036 4.15932203 8.5 6.76779661 6.78975904 4.89152542 6.78975904 4.89152542 6.12409639 4.15932203 5.78614458 5.53220339 4.98222892 5.66440678 4.34728916 6.33050847 4.68524096 7.28135593 4.8746988 6.77288136 5.77590361 6.45762712 6.39036145 7.30677966 6.40572289 7.89661017 6.40572289 7.89661017 5.74518072 10.0423729 5.41746988 11.7305085 7.13795181 9.94067797 8.03403614 9.65084746 8.5 6.76779661 8.96596386 9.65084746 9.86204819 9.94067797 11.5825301 11.7305085 11.2548193 10.0423729 10.5942771 7.89661017 10.5942771 7.89661017 10.6096386 7.30677966 11.2240964 6.45762712 12.1253012 6.77288136 12.314759 7.28135593 12.6527108 6.33050847"></polygon>
                <g id="Path">
                    <polygon fill="#2D2113" points="3.69186747 2.63389831 2.46295181 1.26101695 1.15210843 0.869491525 0.640060241 0.986440678 0.440361446 1.83559322 0.440361446 3.3559322 1.14186747 4.59661017 2.36054217 5.34915254 3.5689759 4.30677966"></polygon>
                    <polygon fill="#2C1800" points="8.5 6.45762712 8.1876506 3.44237288 8.5 3.49322034"></polygon>
                    <polygon fill="#A8633A" points="5.77590361 2.25762712 4.60331325 2.31864407 2.52439759 0.686440678 1.29036145 0.0406779661 0.425 0.26440678 0 0.9 0 2.43559322 0.440361446 2.7559322 0.440361446 1.83559322 0.640060241 0.986440678 1.15210843 0.869491525 2.46295181 1.26101695 3.69186747 2.63389831 3.5689759 4.30677966 2.36054217 5.34915254 1.56686747 7.89661017 3.05180723 8.47118644 4.25 7.18983051 4.68524096 7.28135593 4.34728916 6.33050847 4.78253012 5.87288136 4.98222892 5.66440678 5.78614458 5.53220339 6.12409639 4.15932203 6.90753012 4.09830508 7.56807229 3.44237288 8.12108434 4.24576271 8.5 6.76779661 8.5 2.63389831"></polygon>
                    <polygon fill="#CC8E58" points="1.35180723 12.8033898 1.18795181 10.9067797 2.0686747 8.87288136 3.05180723 8.47118644 1.56686747 7.89661017 5.30993976 2.7559322 3.5689759 4.30677966 2.36054217 5.34915254 1.00361446 6.67627119 0.74246988 9.65084746 0.593975904 11.5779661"></polygon>
                    <polygon fill="#A8633A" points="4.80301205 5.41016949 6.12409639 4.15932203 5.78614458 5.53220339 4.98222892 5.66440678 4.71596386 5.9440678"></polygon>
                    <polygon fill="#EBE8DB" points="5.74518072 14.1966102 4.80301205 13.3881356 4.00933735 10.5864407 4.43945783 9.13728814 4.25 7.89661017 5.74518072 10.0423729 6.78975904 9.57457627 8.03403614 9.65084746 7.93162651 10.3576271 7.06626506 10.7644068 6.78975904 11.4457627 6.92801205 12.0457627 7.17891566 12.3254237 6.56445783 13.8355932 5.85783133 13.8355932 5.30993976 13.1033898 5.30993976 13.6322034"></polygon>
                    <polygon fill="#5D2900" points="3.5689759 4.30677966 3.69186747 2.63389831 4.68524096 2.96440678 5.30993976 2.7559322"></polygon>
                    <polygon fill="#5D2900" points="3.42048193 2.84237288 3.5689759 4.30677966 3.69186747 2.63389831 3.00572289 1.88644068"></polygon>
                    <polygon fill="#A8633A" points="1.00361446 6.67627119 0.332831325 5.34915254 0 3.32542373 0 2.43559322 0.440361446 2.7559322 0.440361446 3.3559322 1.14186747 4.59661017 2.36054217 5.34915254"></polygon>
                    <polygon fill="#A8633A" points="4.68524096 7.28135593 4.68524096 6.55932203 5.93463855 5.98983051 5.77590361 6.45762712 4.8746988 6.77288136"></polygon>
                    <polygon fill="#D6B795" points="5.81174699 8.07457627 5.06927711 7.86101695 4.68524096 7.28135593 4.25 7.18983051 4.00933735 7.4440678 4.25 7.89661017 4.49578313 8.24745763 5.74518072 10.0423729 6.40572289 7.89661017"></polygon>
                    <polygon fill="#DBD5C3" points="6.67710843 15.5542373 6.33403614 14.359322 5.74518072 14.1966102 4.80301205 13.3881356 4.52138554 12.4016949 3.34879518 13.8355932 2.79578313 14.0237288 3.73795181 15.9711864 5.20240964 17.0033898 6.33403614 16.4338983 7.41445783 15.8898305"></polygon>
                </g>
                <polygon id="Path" fill="#2D2113" points="13.3081325 2.63389831 14.5370482 1.26101695 15.8478916 0.869491525 16.3599398 0.986440678 16.5596386 1.83559322 16.5596386 3.3559322 15.8581325 4.59661017 14.6394578 5.34915254 13.4310241 4.30677966"></polygon>
                <g transform="translate(10.599398, 6.457627)" id="Path">
                    <polygon fill="#2C1800" points="0.0102409639 1.43898305 0.0102409639 0.849152542 0.624698795 0 1.52590361 0.315254237 1.71536145 0.823728814 1.3313253 1.40338983 0.588855422 1.61694915"></polygon>
                    <g transform="translate(0.204819, 0.000000)">
                        <g>
                            <path d="M0.578614458,1.0220339 C0.860240964,1.0220339 1.09578313,0.828813559 1.15722892,0.569491525 C1.1623494,0.594915254 1.1623494,0.620338983 1.1623494,0.650847458 C1.1623494,0.986440678 0.906325301,1.2559322 0.588855422,1.2559322 C0.271385542,1.2559322 0.0153614458,0.986440678 0.0153614458,0.650847458 C0.0153614458,0.645762712 0.0153614458,0.640677966 0.0153614458,0.63559322 C0.102409639,0.859322034 0.322590361,1.0220339 0.578614458,1.0220339 Z" fill="#4D2F00"></path>
                            <path d="M0.578614458,1.0220339 C0.322590361,1.0220339 0.102409639,0.859322034 0.0153614458,0.63559322 C0.0256024096,0.310169492 0.276506024,0.0457627119 0.588855422,0.0457627119 C0.880722892,0.0457627119 1.12138554,0.274576271 1.15722892,0.569491525 C1.09578313,0.828813559 0.860240964,1.0220339 0.578614458,1.0220339 Z" fill="#2C1800"></path>
                        </g>
                        <path d="M0.829518072,0.666101695 L1.12650602,0.574576271 C1.12650602,0.574576271 1.01385542,0.269491525 0.568373494,0.33559322 C0.568373494,0.340677966 0.793674699,0.533898305 0.829518072,0.666101695 Z" fill="#ECD9CB"></path>
                    </g>
                </g>
                <polygon id="Path" fill="#2C1800" points="8.5 6.45762712 8.8123494 3.44237288 8.5 3.49322034"></polygon>
                <polygon id="Path" fill="#262626" points="9.93373494 10.7644068 9.06837349 10.3576271 8.5 10.3576271 8.5 10.3576271 7.93162651 10.3576271 7.06626506 10.7644068 6.78975904 11.4457627 6.92801205 12.0457627 7.64487952 12.8491525 8.5 13.1033898 8.5 13.1033898 8.5 13.1033898 8.5 13.1033898 8.5 13.1033898 9.35512048 12.8491525 10.071988 12.0457627 10.210241 11.4457627"></polygon>
                <polygon id="Path" fill="#000000" points="8.87891566 11.8983051 9.1810241 12 9.57018072 12 9.85692771 11.4966102 9.30391566 11.1050847 8.5 10.9372881 8.5 10.9372881 8.5 10.9372881 8.5 10.9372881 8.5 10.9372881 7.69608434 11.1050847 7.14307229 11.4966102 7.42981928 12 7.8189759 12 8.12108434 11.8983051 7.85993976 12.2338983 7.17891566 12.3254237 7.64487952 12.8491525 8.5 13.1033898 8.5 13.1033898 8.5 13.1033898 8.5 13.1033898 8.5 13.1033898 9.35512048 12.8491525 9.82108434 12.3254237 9.14006024 12.2338983"></polygon>
                <polygon id="Path" fill="#000000" points="11.1421687 13.8355932 10.4355422 13.8355932 8.5 13.4033898 8.5 13.4033898 8.5 13.4033898 8.5 13.4033898 8.5 13.4033898 6.56445783 13.8355932 5.85783133 13.8355932 5.30993976 13.1033898 5.30993976 13.6322034 5.74518072 14.1966102 6.56445783 14.4254237 7.64487952 13.9271186 8.5 14.1762712 8.5 14.1762712 8.5 14.1762712 8.5 14.1762712 8.5 14.1762712 9.35512048 13.9271186 10.4355422 14.4254237 11.2548193 14.1966102 11.6900602 13.6322034 11.6900602 13.1033898"></polygon>
                <polygon id="Path" fill="#918A85" points="10.4355422 14.4254237 9.35512048 13.9271186 8.5 14.1762712 7.64487952 13.9271186 6.56445783 14.4254237 7.64487952 15.0050847 8.5 15.1728814 8.5 15.1728814 8.5 15.1728814 8.5 15.1728814 8.5 15.1728814 9.35512048 15.0050847"></polygon>
                <polygon id="Path" fill="#5C524A" points="10.4355422 13.8355932 9.82108434 12.3254237 9.35512048 12.8491525 8.5 13.1033898 7.64487952 12.8491525 7.17891566 12.3254237 6.56445783 13.8355932 8.5 13.4033898"></polygon>
                <polygon id="Path" fill="#EBE8DB" points="10.4355422 14.4254237 9.35512048 15.0050847 8.5 15.1728814 7.64487952 15.0050847 6.56445783 14.4254237 6.33403614 14.359322 6.67710843 15.5542373 7.8189759 16.0779661 8.5 16.2559322 8.5 16.2559322 8.5 16.2559322 8.5 16.2559322 8.5 16.2559322 9.1810241 16.0779661 10.3228916 15.5542373 10.6659639 14.359322"></polygon>
                <polygon id="Path" fill="#A8633A" points="11.2240964 2.25762712 12.3966867 2.31864407 14.4756024 0.686440678 15.7096386 0.0406779661 16.575 0.26440678 17 0.9 17 2.43559322 16.5596386 2.7559322 16.5596386 1.83559322 16.3599398 0.986440678 15.8478916 0.869491525 14.5370482 1.26101695 13.3081325 2.63389831 13.4310241 4.30677966 14.6394578 5.34915254 15.4331325 7.89661017 13.9481928 8.47118644 12.75 7.18983051 12.314759 7.28135593 12.6527108 6.33050847 12.2174699 5.87288136 12.0177711 5.66440678 11.2138554 5.53220339 10.8759036 4.15932203 10.0924699 4.09830508 9.43192771 3.44237288 8.87891566 4.24576271 8.5 6.76779661 8.5 2.63389831"></polygon>
                <polygon id="Path" fill="#CC8E58" points="15.6481928 12.8033898 15.8120482 10.9067797 14.9313253 8.87288136 13.9481928 8.47118644 15.4331325 7.89661017 11.6900602 2.7559322 13.4310241 4.30677966 14.6394578 5.34915254 15.9963855 6.67627119 16.2575301 9.65084746 16.4060241 11.5779661"></polygon>
                <polygon id="Path" fill="#A8633A" points="12.3966867 2.31864407 11.346988 2.01355932 10.210241 1.82033898 8.5 2.01355932 6.78975904 1.82033898 5.65301205 2.01355932 4.60331325 2.31864407 5.77590361 2.25762712 8.5 2.63389831 8.5 2.63389831 8.5 2.63389831 8.5 2.63389831 8.5 2.63389831 11.2240964 2.25762712"></polygon>
                <polygon id="Path" fill="#A8633A" points="12.196988 5.41016949 10.8759036 4.15932203 11.2138554 5.53220339 12.0177711 5.66440678 12.2840361 5.9440678"></polygon>
                <polygon id="Path" fill="#EBE8DB" points="11.2548193 14.1966102 12.196988 13.3881356 12.9906627 10.5864407 12.5605422 9.13728814 12.75 7.89661017 11.2548193 10.0423729 10.210241 9.57457627 8.96596386 9.65084746 9.06837349 10.3576271 9.93373494 10.7644068 10.210241 11.4457627 10.071988 12.0457627 9.82108434 12.3254237 10.4355422 13.8355932 11.1421687 13.8355932 11.6900602 13.1033898 11.6900602 13.6322034"></polygon>
                <polygon id="Path" fill="#A8633A" points="8.5 6.76779661 10.8759036 4.15932203 10.0924699 4.09830508 9.43192771 3.44237288 9.55481928 2.91864407 8.5 2.63389831 8.5 2.63389831 8.5 2.63389831 8.5 2.63389831 8.5 2.63389831 7.44518072 2.91864407 7.56807229 3.44237288 6.90753012 4.09830508 6.12409639 4.15932203 8.5 6.76779661 8.5 6.76779661 8.5 6.76779661"></polygon>
                <polygon id="Path" fill="#5D2900" points="13.4310241 4.30677966 13.3081325 2.63389831 12.314759 2.96440678 11.6900602 2.7559322"></polygon>
                <polygon id="Path" fill="#5D2900" points="13.5795181 2.84237288 13.4310241 4.30677966 13.3081325 2.63389831 13.9942771 1.88644068"></polygon>
                <polygon id="Path" fill="#A8633A" points="15.9963855 6.67627119 16.6671687 5.34915254 17 3.32542373 17 2.43559322 16.5596386 2.7559322 16.5596386 3.3559322 15.8581325 4.59661017 14.6394578 5.34915254"></polygon>
                <polygon id="Path" fill="#A8633A" points="12.314759 7.28135593 12.314759 6.55932203 11.0653614 5.98983051 11.2240964 6.45762712 12.1253012 6.77288136"></polygon>
                <polygon id="Path" fill="#CC8E58" points="9.84668675 7.39830508 10.210241 4.89152542 8.5 6.76779661"></polygon>
                <polygon id="Path" fill="#807664" points="11.7975904 17.0033898 9.58554217 15.8898305 9.1810241 16.0779661 8.5 16.2559322 7.8189759 16.0779661 7.41445783 15.8898305 5.20240964 17.0033898 5.74518072 17.3898305 8.5 17.959322 8.5 17.959322 8.5 17.959322 8.5 17.959322 8.5 17.959322 11.2548193 17.3898305"></polygon>
                <g transform="translate(1.177711, 7.779661)" fill="#DBD5C3" id="Path">
                    <polygon points="2.27349398 0.26440678 1.87409639 0.691525424 0.890963855 1.09322034 0.0102409639 3.12711864 0.174096386 5.02372881 1.35692771 6.02542373 1.35692771 4.73389831 1.76144578 3.57966102 2.57048193 2.08474576 2.51415663 0"></polygon>
                    <polygon points="13.7536145 1.09322034 12.7704819 0.691525424 12.3710843 0.26440678 12.1304217 0 12.0740964 2.08474576 12.8831325 3.57966102 13.2876506 4.73389831 13.2876506 6.02542373 14.4704819 5.02372881 14.6343373 3.12711864"></polygon>
                </g>
                <polygon id="Path" fill="#D6B795" points="12.75 7.18983051 12.314759 7.28135593 11.9307229 7.86101695 11.188253 8.07457627 10.5942771 7.89661017 11.2548193 10.0423729 12.5042169 8.24745763 12.75 7.89661017 12.9906627 7.4440678"></polygon>
                <polygon id="Path" fill="#CFC7AF" points="13.3081325 7.77966102 12.9906627 7.4440678 12.75 7.89661017 12.5605422 9.13728814 12.9906627 10.5864407 12.4786145 12.4016949 13.6512048 13.8355932 14.2042169 14.0237288 15.289759 13.1033898"></polygon>
                <polygon id="Path" fill="#DBD5C3" points="13.6512048 13.8355932 12.4786145 12.4016949 12.196988 13.3881356 11.2548193 14.1966102 10.6659639 14.359322 10.3228916 15.5542373 9.58554217 15.8898305 10.6659639 16.4338983 11.7975904 17.0033898 13.2620482 15.9711864 14.2042169 14.0237288"></polygon>
                <polygon id="Path" fill="#CFC7AF" points="3.69186747 7.77966102 4.00933735 7.4440678 4.25 7.89661017 4.43945783 9.13728814 4.00933735 10.5864407 4.52138554 12.4016949 3.34879518 13.8355932 2.79578313 14.0237288 1.71024096 13.1033898"></polygon>
                <g transform="translate(4.659639, 6.457627)" id="Path">
                    <polygon fill="#2C1800" points="1.73072289 1.43898305 1.73072289 0.849152542 1.11626506 0 0.215060241 0.315254237 0.0256024096 0.823728814 0.409638554 1.40338983 1.15210843 1.61694915"></polygon>
                    <g transform="translate(0.358434, 0.000000)">
                        <g>
                            <path d="M0.599096386,1.0220339 C0.31746988,1.0220339 0.0819277108,0.828813559 0.0204819277,0.569491525 C0.0153614458,0.594915254 0.0153614458,0.620338983 0.0153614458,0.650847458 C0.0153614458,0.986440678 0.271385542,1.2559322 0.588855422,1.2559322 C0.906325301,1.2559322 1.1623494,0.986440678 1.1623494,0.650847458 C1.1623494,0.645762712 1.1623494,0.640677966 1.1623494,0.63559322 C1.0753012,0.859322034 0.855120482,1.0220339 0.599096386,1.0220339 Z" fill="#4D2F00"></path>
                            <path d="M0.599096386,1.0220339 C0.855120482,1.0220339 1.0753012,0.859322034 1.1623494,0.63559322 C1.15210843,0.310169492 0.901204819,0.0457627119 0.588855422,0.0457627119 C0.296987952,0.0457627119 0.0563253012,0.274576271 0.0204819277,0.569491525 C0.0819277108,0.828813559 0.31746988,1.0220339 0.599096386,1.0220339 Z" fill="#2C1800"></path>
                        </g>
                        <path d="M0.348192771,0.666101695 L0.0512048193,0.574576271 C0.0512048193,0.574576271 0.163855422,0.269491525 0.609337349,0.33559322 C0.609337349,0.340677966 0.384036145,0.533898305 0.348192771,0.666101695 Z" fill="#ECD9CB"></path>
                    </g>
                </g>
                <polygon id="Path" fill="#D9AA8B" points="8.5 6.76779661 8.5 6.76779661 7.93162651 10.3576271 8.5 10.3576271 8.5 10.3576271 9.06837349 10.3576271"></polygon>
            </g>
        </g>
    </g>
</svg>